<?xml version="1.0" encoding="UTF-8"?>
<svg version="1.1" viewBox="0 0 2048 1406" width="1016" height="698" xmlns="http://www.w3.org/2000/svg">
<path transform="translate(0)" d="m0 0h2048v1406h-2048z" fill="#FDFDFD"/>
<path transform="translate(603,839)" d="m0 0h6l4 5 2 5-1 4-2-1-1 7-2 8-4 10-2 12-3 11-3 10-6 19-4 20-2 12-5 15-8 20-8 16h11l10-4 6-3 12 1h9l8 4v2l14 1 3-1h2l25-25 1-6-7 9-1-2 1-7 3-1 1-2h-2l2-5 4-5 5-4 1-2 1-10 7-17 8-13 7-11 9-11 12-12 20-11 14-6h8l24 3 3 3 21 7 1 2 8 3 4 3 4 1h3l10 7 7 3 2 2 3 7 2 9-1 6-4 13-10 14-11 12-6 5-14 19-8 16-13 38-7 18-6 28-4 24 1-2 2-14 2-1-2 21-6 34-2 20v16l-1 33-1 7h-1l-1-8-1 60-3 9-9 10-7 4-20 2h-4v2h-3l-2 1-3-2-4-1h-45v2l2 1-13 1-1-1-9 2-5 2-9 1-60 1h-11l-1 2v-2l-8 1-4 2-6-3-1 2v-2l-9 3h-3l-1-3h-28l-1-2-6-4h-4v-3h-2l-5-5-1-3h-2l-1-4 1-2-2-1h2v-3l-9 3-4-2-1-3-4-2-3-7-1-10v-21l1-28 4-9 2-13h2l1-34 1-19-1-7-3-15-3-5-2-17v-19l-4-1v-7l1-4-1-4 7-8 14-14 8-7 5-5 7-6 18-4 14-3 34-6 5-1-2-5 2-1-1-3h-2l-2-4 1-7 5-16 7-15 4-22 6-18 5-22 1-4h2v-2l-2-1 2-3 2-13 9-9h2l-1-3h2v2h2l-1-4 1-2h2l-1-4-6-5-1-3 5-3z" fill="#FDFDFD"/>
<path transform="translate(791,321)" d="m0 0h30l15 1 2 1v2l12 2 12 4 34 17 17 10 17 12 13 13 8 10 14 19 12 17 7 14 7 15v4h2l8 28 5 22 2 14 1 16-1 33-2 6h-2v14l-2 10-4 14-2 1-5 15-11 25-9 15-4 5-5 9-11 12-13 8h-2l-2 5-10 11-4 1-20 12-21 9-16 8-15 6-16 6-13 3-6 4-14 5-10 4-6 3h-3v2l-3 1-2-2-4 1-3 3-7 3-12 1-9 3h-40l-15-1-25-1-7-1-7 1-26-2-24-5-21-7-7-3-4-5-8-3v-2h-2v-2l-5-1-19-9-7-4-17-10-7-8-8-16-2-5-4-2-10-14-7-9-1-3h-4l-5-5 2-2v2h2l-4-6-2-9h-2l-4-7-2-9-1-9-2-10-1-9v-12l-1-3-1-39-3-1-1-2v-7l1-4v-10-3l1-5h-2l-5-5-6-3v-2h-7l-3-2-10-5-9-1-3-1-4-2h-5l-5-1-4-4h-2v-2h-4v-3l-9 1-2-3 1-2-4 1-6-2-2 2-3-1 1-2 1-1-7-1 1 3-4 1v-3l-4-1v2l3 1-2 2-5-1 1-4-9-3-2-1-17-1-4-1v-2h3v-2l-5-1-7-4-12-3-10-2h-8l-9 1-10-1-7-5-3-1v-2h-4v-2l-5-2v-2h-2l-2-4v-4h-2l-1-7 2-7 7-5h9l11 4 11 5 12 3 7 1 12 4 7 2 21 7 16 6 4 2v2l17 1 9 3 9 1 10 1 8 5 9 2 4 4 11 4 9 2 16 8 21 9 6 2-3 1 2 25 3 3 1 35 3 29 1 10-3 3 2 6h2v18l1 4-1 2 5 1 3 3-1 5 2 1-2 3h2l1 2h3v3l5-2 2 2v2l5 5v2l3 1 2 3 8 1-2 4 3 2-3 2-1-3v3l5 5h2l1 5 4 5-5-2v2h2l-1 3 3 5 8 4h3l-3-4 7 1 1 3 4 2 3 4-1 4-2 4 11 6 7 5 7 1 1-2h2 3l1-2 1 2 4-2 5 3-1 4h-2v2l-6 2 14 4 6 2 4 2 8 3 28 4 40 3 30 2h40l14-3 15-4 37-13 16-6 7-1 12-3 11-2 18-6 14-8v-3l11-7 16-10 10-8 11-9 9-9 14-19 9-15h2l2-5 5-12 5-15 3-12 3-15 4-21 1-10v-14l-1-21-5-12-2-10-3-9-3-8v-5l-9-16-8-11-8-16-7-10-3-4v-2h-2v-6h-2l-2-4-5-3v-2l-1 2-5-1v-3-2h-2v-4l-1 2-6-2-1-3-5-2v-3l-6-5-5-2-2-4-11-6-9-4 1-2h3 2l-10-5-12-3-5-2 1-2-2-2v-1l-6-1-1-2-22-2h-16l-23 2-17 3h-7l-7 2-9 2-6 1v2l-21 3-17 3h-14l-1 1-4 2-1 2h-2l-1 2-9 2-7 2v3h-5l-4 2-1 3-4 3h-2l-1 2h-2l-3-3 1 6-2 5h-2l-2 4-2 3h-2l-2 4-5 4h-2l-2 5-9 10-4 5-5 11-7 21-4 10-1 4-2 5-1 1v10l-2 4v-9l-1-1-2 18v9l2 6-1 4h-3l2 18 1 8 1 13 3 8 2 4 2 2 3 2 3 9h2l3 5 3 8 1 4v3l6 3 3 7 2 1v3h3v2l4 1 8 6v2l4 1 1 3-5 2 5 4 5 2-2 2 8 1 9 1v2l2 1h33l19 2h22l23-2 4 1 15-1-8-1v-1l25-6 3-2h11l9-5 11-11 3-1-1 3-5 5-10 9-5 5-1 4 2 1v2l-1 1 1 2 5-5 1-4 5-4 5-5 6-5 3-14v-4h2l-1-6 1-8 1-19h-2l1-3v-13l-2-5-2 1-3-3-2-12 1-4-3-2-1 2-5-3-3-6-5-4v-4l-8-2-1 3-9-1-11-3h-4v-2l-4-1 4-1h1l-12-6-8-1-18 1-22 11-8 9h-2v4h-3l-1 3h-3l-6 2-1-3-1 5-4-2 2-4-3 1-1-6 1-2h-2l-1-4 7-8 13-10 3-1 2-4 10-7 12-4 8-1h15l29 5 10 3-3 2 15 3 13 6 8 2 5 7 5 5 6 8 4 10 3 19-2 2v3l-2 2 3 1-2 6 5-5 4 10v13l-1 1-1 18-13 28-7 10-11 9-2 1-14 1-4-1-1 3-15 5h-4l-1 2h-2l-7 1-3 2-10 3-17 3h-27l-33-2-6-1-21-1-18-5v-1l7 1 9 2 16 1h16l-16-2h-17l-2-2 3-1h-7v-2h-2l-1 3v-2l-13-1h-4l-3-3 4-1-8-2-5-2v-2l-6-2-5-2-4-5-5-4h-2v-2h-2v-2l-2-2 1-2h-2l-2-7-1-5h-2v-3h-2v-2h-2l-2-8v-11l-1-3-3-1 3-1v-2h-2v-3h-2l1 4-2 1v-6l-2-1 1-3-4-1-3-5-1-5 1-2h-2l-2-8 1-2h-2l1-4-2-1-2-4-1-17v-11l3-28 3-14 11-33 12-26 10-13 13-12 7-8 16-16-4 1 6-7 8-8 5-1 9-6 23-9 9-2 3-3 22-2 12-3 6-2 10-1 4-2v2l4-1 18-3 3-2 7-1z" fill="#050405"/>
<path transform="translate(603,839)" d="m0 0h6l4 5 2 5-1 4-2-1-1 7-2 8-4 10-2 12-3 11-3 10-6 19-4 20-2 12-5 15-8 20-8 16h11l10-4 6-3 12 1h9l8 4v2l14 1 3-1h2l25-25 1-6-7 9-1-2 1-7 3-1 1-2h-2l2-5 4-5 5-4 1-2 1-10 7-17 8-13 7-11 9-11 12-12 20-11 14-6h8l24 3 3 3 21 7 1 2 8 3 4 3 4 1h3l10 7 7 3 2 2 3 7 2 9-1 6-4 13-10 14-11 12-6 5-14 19-8 16-13 38-7 18-6 28-4 24 1-2 2-14 2-1-2 21-6 34-2 20v16l-1 33-1 7h-1l-1-8-1 60-3 9-9 10-7 4-20 2h-4v2h-3l-2 1-3-2-4-1h-45v2l2 1-13 1-1-1-9 2-5 2-9 1-60 1h-11l-1 2v-2l-8 1-4 2-6-3-1 2v-2l-9 3h-3l-1-3h-28l-1-2-6-4h-4v-3h-2l-5-5-1-3h-2l-1-4 1-2-2-1h2v-3l-9 3-4-2-1-3-4-2-3-7-1-10v-21l1-28 4-9 2-13h2l1-34 1-19-1-7-3-15-3-5-2-17v-19l-4-1v-7l1-4-1-4 7-8 14-14 8-7 5-5 7-6 18-4 14-3 34-6 5-1-2-5 2-1-1-3h-2l-2-4 1-7 5-16 7-15 4-22 6-18 5-22 1-4h2v-2l-2-1 2-3 2-13 9-9h2l-1-3h2v2h2l-1-4 1-2h2l-1-4-6-5-1-3 5-3zm145 54-13 11-15 11-9 11-10 15-10 25-5 14-5 35-4 10-2 12-5-1h-2l2-2-1-1 2-1-1-4h4l1-5h-12v2l-5-1h-1l-3-1-4 2v2l-5 2-5 3h-78l-18 1-17 4-25 5-9 4-9 3-7 4-1 1v7l-4 2-4 4v11l2 14 1 18 3 1v2l3 2 2 1v14l1 10v10l-1 5v25l-2 7-1 2-2 23-2 1-3 9-2 9-1 1v5h2v10l-1 11 5 10 8 10 10 7 8 4h109l1-2 3-1v-2l6 1v-2h-4l1-3 7 1 5 4h16l12-2 13-3 11 1 5-1 13 1 5 3h19l3-2-2-1 9-1 3-3v-19h-2v-2l-4-1 1-5v-3h-3l1-3v-3l1-3h4l2-12v-11l2 1 1-5 1-27 2-15 2-5 3-28 7-50 6-34 7-20 9-22 7-14 4-10 11-16 3-1 1-4 3-5 8-9 7-6 10-14 3-10v-5h-2l-2 3-3-3-1-5-10-2-1-3-6-3-3 3-6-1-3 1v-2h-2v-5l-2-3-4-1-5-2-1 2-2 3-2-3-1 3-5-1v-2l-4-2-1 2-3-1v2l-11 1-1-4z" fill="#060506"/>
<path transform="translate(949,414)" d="m0 0m-72-56 10 3 12 5 8 3v3h3v3h2l1 2h2v3l4-1 2 3h-3v2l5-1 2 3 5-2 2 3v-4h2l1 7 1 3 6 1v2l7 2-4 3v2l4 2-4 1 4 4-6-2v5l4-1 2 3 1 5 3 1v2h2l1 5 2-1-1 5 3 13 1 3 1-3h2l1 7 2-4 2 2 1 9h3l2 8 4 13 1 5h2l4 14v7h2l4 11 4 12h-2l1 2 1 17-1 17-3 17-6 26-8 24-9 17-11 16-11 13-8 8-8 7-12 11-10 6-4 2-5 4-9 7-15 12-10 5-9 3-9 1-8 1-31 8-56 18-16 4-10 1h-24l-17-1-5-1h-14l-2 2-21-2-21-4-9-2 1 3-1 2-16-2-1 2-4-3 2 4-1 2 5 1 12 3 13 4 26 2h9l-2-3h8l-1 3h18l4 1 1-2 6 2 7-1 3-1v2h11l7 1 13-1h14l11-2 5-1v3l7-1 1-4 4-1-1-3 1-4 7-1h3 5l5-1 1-3 10-4 12-4 9-4 7-3 11-3h6l1 2 12-5 13-5 9-4h2l1-3 6-4h5v-3h-2l-5 1 2-4 13-6v-3h10l13-7 1-3 9-6 4 2-5 4-5 2-2 5-10 11-4 1-20 12-21 9-16 8-15 6-16 6-13 3-6 4-14 5-10 4-6 3h-3v2l-3 1-2-2-4 1-3 3-7 3-12 1-9 3h-40l-15-1-25-1-7-1-7 1-26-2-24-5-21-7-7-3-4-5-8-3v-2h-2v-2l-5-1-19-9-7-4-17-10-7-8-8-16-2-5-4-2-10-14-7-9-1-3h-4l-5-5 2-2v2h2l-4-6-2-9h-2l-4-7-2-9-1-9-2-10-1-9v-12l-1-3-1-39-3-1-1-2v-7l1-4v-10-3l1-5h-2l-5-5-6-3v-2h-7l-3-2-10-5-9-1-3-1-4-2h-5l-5-1-4-4h-2v-2h-4v-3l-9 1-2-3 1-2-4 1-6-2-2 2-3-1 1-2 1-1-7-1 1 3-4 1v-3l-4-1v2l3 1-2 2-5-1 1-4-9-3-2-1-17-1-4-1v-2h3v-2l-5-1-7-4-12-3-10-2h-8l-9 1-10-1-7-5-3-1v-2h-4v-2l-5-2v-2h-2l-2-4v-4h-2l-1-7 2-7 7-5h9l11 4 11 5 12 3 7 1 12 4 7 2 21 7 16 6 4 2v2l17 1 9 3 9 1 10 1 8 5 9 2 4 4 11 4 9 2 16 8 21 9 6 2-3 1 2 25 3 3 1 35 3 29 1 10-3 3 2 6h2v18l1 4-1 2 5 1 3 3-1 5 2 1-2 3h2l1 2h3v3l5-2 2 2v2l5 5v2l3 1 2 3 8 1-2 4 3 2-3 2-1-3v3l5 5h2l1 5 4 5-5-2v2h2l-1 3 3 5 8 4h3l-3-4 7 1 1 3 4 2 3 4-1 4-2 4 11 6 7 5 7 1 1-2h2 3l1-2 1 2 4-2 5 3-1 4h-2v2l-6 2 14 4 6 2 4 2 8 3 28 4 40 3 30 2h40l14-3 15-4 37-13 16-6 7-1 12-3 11-2 18-6 14-8v-3l11-7 16-10 10-8 11-9 9-9 14-19 9-15h2l2-5 5-12 5-15 3-12 3-15 4-21 1-10v-14l-1-21-5-12-2-10-3-9-3-8v-5l-9-16-8-11-8-16-7-10-3-4v-2h-2v-6h-2l-2-4-5-3v-2l-1 2-5-1v-3-2h-2v-4l-1 2-6-2-1-3-5-2v-3l-6-5-5-2-2-4-11-6-9-4 1-2h3 2l-4-2z" fill="#39383C"/>
<path transform="translate(914,882)" d="m0 0h6l6 5 3 6 4 33 2 15 4 86v38h2v8l-1 10 3 36 2 19 5 19 4 7 4 10 8 8 13 8 22 12v2l4 1-1 3 5-1-1 3h2v-2h7l12 3 2 2 5 1h18l4 2 1-2 2 1 16 2 53 9 9 1h63l7-1 1 1h23l1-2-10-1v-1l29-2 16-2h-10l2-2 27-3 77-1h12l8-1h-10l4-2 14-3 4-1 49-1h47l18-1 14-3-1-2 10-2h5l5-2 19-3h14l5 4 1 2v7l-3 5-3 1-1 3-10 2-4-3-1 2-10 1-5 4-1-2-14 3-7 3-11 2-8 3h-44l-20-1-31 1-13 2-2 3h-19l-13 1h-39-4-13l-13 1-4 2h-18l-1-2v3l-8 1v2l-32 4-34 2h-30l-19 1h-21l-42-6-16-3-7-1h-19l-11-1 1-3h-9l-9-2v-1l8-1-11-4-6-2 2-2-1-2-4-1-5-2-3-1v-2l-7 3 1 2h-2l-1 2-6-2-8-4-2-4-3-1v-2h-2l-1-2-6-3-9-8-8-7-3-10h-2l-1-11h-2l-5-21-1-10-1-4-2-9-3-12-1-12v-21l1-2v-13h1v-17l-1 9h-1l-1-13-2 1-1-3-1-23-1-97-1-24-2-3v-2h-2l-1-5 4-4z" fill="#080708"/>
<path transform="translate(1787,346)" d="m0 0h7l6 4 1 7-3 8h-3v3h-2l-2 4h-2l-2 4 1 3-9 11-7 9-6 8-8 7-4 5-7 8-10 9-15 10-16 7-12 4-16 1h-8l-12 2-8 2h-34l-17-2-44-8-19-4 2-2-10-2-2 1-28-6-7-1-4 1-40-5v-2l-23-2-14-1-1-3-5 1-4 1-9-1-11-1-1 2-4-2-1 3-6 1-28-1h-5l1-3h18l-36-2-1-1-22-1-7-1-31 1-16 3-26 1-19 5-13 4-12 3-14 8-11 6-4 2-2 4-7 4-5 3-8 6-6 4h-2l-1 6 1 2-1 2 3-3 3 1-1 3-5 5-5 4-3 1-1 9-5 5h-2l-1 3-7 6-6 1-6-2-3-9-3-1 1-2h-2l-1 2v-3l4-1 1 2 5-2 4-4h2v-6h-3v-2h-2v-2l-4-2v-15l10-16 6-4 2-1 5-4 4-2 4 1 20-8 10-5 8-5 7-2 11-7 6-4 20-5 13-5 19-4 36-1h54l14 1 11 2 16 1 49 1 20 1-1 2h-10l-2-1v2h9l6 1-1-4 16 1 64 8 4 1v2l4-1v2l6-1v2l5-1 4 1 5 1 9 3h6v2l5-1 1 1 10 1 15 4 1 1 24 4 9 2h38l13-1 29-1 9-1 1-3 14-5 5-1 11-11 1-2-2-1 5-6 8-7 4-4h2l1-3 2 1v1l2 1-4 5v3l2 1-3 10h2l1-3 2 4 5-11h2v-9l5-8-6 3 2-4 4-2 2-7 2-1 4-8 2-3-2-3 2-7 5-5 6-4z" fill="#060506"/>
<path transform="translate(1594,884)" d="m0 0 11 1 6 4 2 4v10l-3 10-3 3-4 1-1 9-6 12-1-2-2 7 2-1-1 8-1 5-6 15-6 11-11 15-6 10-11 12-4 6-8 7-20 14-22 18-16 12-9 6-2-1-4 2-2 4-20 12-14 7-18 5-2 2-9 1-16 8-5 5h-8l-16 8-8 1-7 2-16 4-33 5-2 1v-2l-7 1h-6l-1 3h-3l-5 1v-3h-2v3l-5-1h-10l-1 3-12-2-3 1h-12l-2 1v-2h-2l-1 3v-3l-5 1h-29l-24-2-23-4-17-5-11-5v-2l-4-2v-2l-6-2-2-3 6 1-9-6 2-1 9 4v-2l-4-1-13-6-7 1-3 1-6-3h-5l-2-3h2v-2h-3l-2-3-4-2-2-2-6-2-1-4 5-4-7 2-5-1-4-2v-2l-5-1-5-2-2-2-1-2-4-2-3-4-3-1v-2l-4-2-7-10-1-2v-6l7-12 1-3-9-1-2-2-4-1 5-2-3-2 4-1 9 3 9 8 8 10 9 11 7 7 13 9 11 6 16 11 25 13 19 8-2 1v2l9 3 9 2 8 4 26 5h8l6-1h-13l-18-3-6-2 4-1 11 2 47 1h54l37-5-15 2h-9v-1l26-4 3 1 5-2 1 2 10-3 6-2 6 1 10-4 26-12 26-11 24-7 10-6 8-6 20-11 11-7 14-11 1-4 5-1v-3l7-3 12-10v-2h4v-2l5-3 2 1-1 2 4-6 7-11 5-4h3l2-5 9-15 13-26 6-17 7-19 5-15 1-11z" fill="#070607"/>
<path transform="translate(1436,715)" d="m0 0h9l14 5 9 3 28 3 12 2 11 1 9 6 5-1 1 3h3l-1 2h2l4 4v7l-3 1-2 4-3 1-4 18-3 10-6 10-19 11-12 3-19 3-9 3-26 6h-8v-2h-9l-5-5h-2v2l-6-1-5-2v-2l-4-1-19-12-11-5-7-4-7-1-14-13-7-10 1-2 4 3-5-6-3-1v-10l3-3h2v-5-3l4-5 2-5 5-6 9-3 8 1 2 4 15-1 10-2 5-2 28 1 9-2z" fill="#060507"/>
<path transform="translate(750,871)" d="m0 0h8l24 3 3 3 21 7 1 2 8 3 4 3 4 1h3l10 7 7 3 2 2 3 7 2 9-1 6-4 13-10 14-11 12-6 5-14 19-8 16-13 38-7 18-6 28-4 24 1-2 2-14 2-1-2 21-6 34-2 20v16l-1 33-1 7h-1l-1-8-1 10-1 46-1-2-6-1-1-4-5 2-5-1-2-4-1-8h-3v-2l-5 1 1-9-2-1-1-5 3-4h4l1-17v-5l-2-3h2l2-3 1 1 1-27 2-15 2-5 3-28 7-50 6-34 7-20 9-22 7-14 4-10 12-17 2-1 2-6 11-12 6-5 10-14 3-10 1-5h-2l-1 4-5-4v-5l-10-2-4-4h-3l-3 2-6-1h-3v-2h-2l-2-7-8-2-5 4h-3v-2h-4v-2h-4l-2 1v-2h-2v2l-4 1h-7l-2-3-13 11-14 10-9 11-10 15-10 25-5 14-5 35-4 10-2 13-7-1-2-1 2-4h2l-2-5 5 1-1-3-1-1-9-1v2h-5-3-3-2v2l-5 3-10 1v-2h-2l-1-8 1-4 5-2 2-4 24-24 1-6-7 9-1-2 1-7 3-1 1-2h-2l2-5 4-5 5-4 1-2 1-10 7-17 8-13 7-11 9-11 12-12 20-11z" fill="#060506"/>
<path transform="translate(1250,748)" d="m0 0 8 1 8 6v9l4 7-3 7-7 9h-2l-2 4-8 15-3 9-12 23-10 16h-2l-1 4h-3v2l-4 4-3 4 2 2-3 5-6 7-10 16-11 18-13 23-7 10h-2l-2 4-6 10-6 8-5 8h11l19 2 46-1h34l13 2v2l2 1-16 16h-4v2l-13 1-2-2-6 1h-5l-2-2-18 1-2 1-2-1-1 2-9-3v2l-6 1h-3-6l-1-3h-16l-1 2h-5v-2l-4-1v-2l8-1h10l-21-2h-7l-4 5-11 3-3-3h-4l-2-5 1-9 6-9 6-7v-4l10-11 11-16 7-11 11-17 2-4h2v-2l5-4 2-4 4-4 1-4-4-1 3-2h4l-1-3 4-1-1-6-6 2v2l-10 6h-2v3l-2 1v3l-8 1v3l-3 1 1 2-6 3-11 4-13 3-29 3-3-3 16-2 1-1-12 1-9 3h-28v1h-10l-8-2 3-1h5l-9-2-12-3-3-1v-2l-5-2-4-5-6-6-4-7-3-6-1-3v3l2 3-2 2-4-6-1-12v-19l2-6 2-2h20l5 5v10l-2 7 1 9 2 6h2v2h2v2h2v2l4 2 6 4 27 9 7-3h10l3-2 14-1 22-5 13-5 12-9 18-12 8-4 9-7 5-1 12 2-1 3 7-10 5-9 4-8 5-6 8-16 3-4v-4-11l4-7 2-12 3-9 4-4z" fill="#050406"/>
<path transform="translate(1183,740)" d="m0 0h21l12 2 9 7 2 3v6l-6 2-8 1-1 2-5-1-9-1h-11v-2l5-1h-6l-1 3-18 1h-21v-5l-2 11-3 2-4 12-5 20-4 10v2l19-5 8-3 2-3 11-3 13-7 2-5 12-9 12-6 9-6 8-3 2 1-13 7v2l10-4 4-3h2v5l-5 6-7 8-13 13-10 7-17 10-16 8-15 7-11 3-15 2h-27l-3 1-4-3-16-3-14-3h-16l-1-4 1-2h-9l-5-5-7-8-9-10v-2h-2v-2l-5-2-2-4 1-4 1-3h-2l1-5 3-5 11-2 8-10 3-4 14-1 13-6 40-6 20-1h32l9-1z" fill="#060507"/>
<path transform="translate(576,1055)" d="m0 0h18l16 2 5 2 15 1 10-4 11-1 5 3 6 7 1 6v11l1 13v11l3 31-2 29-2 1v18l1 3-1 12 3 1v7l-11 11h-2v2h-2l-2 5-11 7-16 7-6 4-7 3-4 2-4-1-19 2v-2l-29-1-5-2v-2l-9-2v-2l-5-1-4-13 1-9 2-9 4-1 1 3 1-2h2l4 5 1 4-1 3h39l3 4 5 2 1 3 5-1 4-2 1-2 3 1 4-2v-3l24-11 5-1v-27l1-11h2l-1-4-3 3-4 1h-8l-3 2-3-1v-3h-10l-10-1h-9l-2-1h-39l3-1 1-13h-2l-1-3-2 7-9 1 3-2 6-1-2-3h-3l-1 3v-2l-5 1v-2l10-3 5-2h3v-4l5-1h10l4 2 5-2 12-1 4 2-1 1h3l1-2h12l16 5 11 4 1-7h1l1 9 2 2v-13l-1-2-2 2v-7l2-4 1-11h-2v13h-1l-1-16 1-6 1-3 2-14 5-5 2-3h-26l-15-2-4-2-1 2h-5-3l-3 1v-2h-2v2l-9 1h-6l-2 2-4-4 1-3h-2l-1 3h-2l-2 6-3 1 1-7-4-1h-3l4-8 9-10z" fill="#060507"/>
<path transform="translate(224,436)" d="m0 0h9l11 4 11 5 12 3 7 1 12 4 7 2 21 7 16 6 4 2v2l17 1 9 3 9 1 10 1 8 5 9 2 4 4 11 4 9 2 16 8 21 9 6 2-3 1 2 25 3 3 1 35 3 29 1 10-3 3 2 6h2v7l-1 7-2 3h-5v2l-3 2 2 7 2 1v-2h-2l1-3v2h2v2l5-1 4 5v5l1 3 7 1v3h3l2 4 1 5-3 1 1 4-1 2h2v2l-3 1-2-2-1-4-2-5h-2l2 5-3 1-2-4v5l-1-2-6-2-5-5-6-7v-3h-2l-4-7-2-9-1-9-2-10-1-9v-12l-1-3-1-39-3-1-1-2v-7l1-4v-10-3l1-5h-2l-5-5-6-3v-2h-7l-3-2-10-5-9-1-3-1-4-2h-5l-5-1-4-4h-2v-2h-4v-3l-9 1-2-3 1-2-4 1-6-2-2 2-3-1 1-2 1-1-7-1 1 3-4 1v-3l-4-1v2l3 1-2 2-5-1 1-4-9-3-2-1-17-1-4-1v-2h3v-2l-5-1-7-4-12-3-10-2h-8l-9 1-10-1-7-5-3-1v-2h-4v-2l-5-2v-2h-2l-2-4v-4h-2l-1-7 2-7z" fill="#353438"/>
<path transform="translate(914,882)" d="m0 0h6l6 5 3 6 4 33 2 15 4 86v38h2v8l-1 10 3 36 2 19 5 19 4 7 4 10 8 8 13 8 22 12v2l4 1-1 3 5-1-1 3h2v-2h7l12 3 2 3-8-1-2-1v2l-17-1 14 7 7 6 10 2 3-1 15 2v2h2v2h-2v2h14l1-3 19 3 26 5 1-2h7l7 3v2l7 1h13l1-3h2l1 3 2-1v-2h4v2l4-2v2l29-3v-2h6v3h9v-4h2l1-3v6l1 1v-6h2v6h3l-1-4 3 1v3l9-2 3-1h5v3h10l-1-3 5-1v2h14l1 3-32 4-34 2h-30l-19 1h-21l-42-6-16-3-7-1h-19l-11-1 1-3h-9l-9-2v-1l8-1-11-4-6-2 2-2-1-2-4-1-5-2-3-1v-2l-7 3 1 2h-2l-1 2-6-2-8-4-2-4-3-1v-2h-2l-1-2-6-3-9-8-8-7-3-10h-2l-1-11h-2l-5-21-1-10-1-4-2-9-3-12-1-12v-21l1-2v-13h1v-17l-1 9h-1l-1-13-2 1-1-3-1-23-1-97-1-24-2-3v-2h-2l-1-5 4-4z" fill="#050405"/>
<path transform="translate(963,417)" d="m0 0 5 5 5 8v12l-1 3h2l1 7h2l-1-5 1-3h-2v-7-3l4 2 4 4 8 18v4h2l8 28 5 22 2 14 1 16-1 33-2 6h-2v14l-2 10-4 14-2 1-5 15-11 25-9 15-4 5-5 9-11 12-3 2-6-1-7 5h-2l-1 4-13 7h-8l-2-1 1 3-15 8-1 2 7-3 2 2-2 1v3h-5l-6 4-3 3-16 7-17 6h-3v-1l-7 1-13 3-9 4-8 4-11 3-6 3-1 2-6 2h-5l-2 1v-2l-7 1-1 6 3 1-4 2-2-1-1 4-7 1-2-2-6 2-11 1h-18l-6 1-7-1-11-1v-2h-2l-1 2-7 1-6-2-5 1h-19l2-4-7 1 4 3h-12l-26-2-13-4-12-3-5-2-1-6 4 2 5-2 12 3v-4l-10-3 4-1 24 6 29 4 5-1 1-1h14l5 1 17 1h24l13-2 23-6 46-15 34-9h8l12-3 10-4 11-8 6-5 5-4 9-7 2-2 10-5 14-12 7-7 8-7 10-11 14-21 8-15 8-24 7-29 3-25v-12l-1-13h2l-3-4-5-17v-2h-2l-2-12-2-9h-2l-3-7-4-13-2-1-2-5-1-9-1 1-2 1-1-7h-2l1 3h-2l-3-5-2-13 2-5h2l2-4z" fill="#040304"/>
<path transform="translate(741,489)" d="m0 0h15l29 5 10 3-3 2 15 3 13 6 8 2 5 7 5 5 6 8 4 10 3 19-2 2v3l-2 2 3 1-2 6 5-5 4 10v13l-1 1-1 18-13 28-7 10-11 9-2 1-14 1-4-1-1 3-15 5h-4l-1 2h-2l-7 1-3 2-10 3-17 3h-27l-33-2-6-1-21-1-18-5v-1l7 1 9 2 16 1h16l-16-2h-17l-2-2 3-1h-7v-2h-2l-1 3v-2l-13-1h-4l-3-3 4-1-8-2-5-2v-2l-6-2-5-2-4-5-5-4h-2v-2h-2v-2l-2-2 1-2h-2l-2-7 2-4 2 3 4 7v3l10 2h3l1 1h3v2l-2 1 3 2-2 2 7 1 5 2v4l-1 3 25 1h7l11 2v2l22 3 14 1v-2h6l1 2h11v2l4-3v2l6-1h6l1 2-2 1 14 1 8-2h4l-3-7-8-5h-25v-2l-2-1 34-3 4 1 15-1-8-1v-1l25-6 3-2h11l9-5 11-11 3-1-1 3-5 5-10 9-5 5-1 4 2 1v2l-1 1 1 2 5-5 1-4 5-4 5-5 6-5 3-14v-4h2l-1-6 1-8 1-19h-2l1-3v-13l-2-5-2 1-3-3-2-12 1-4-3-2-1 2-5-3-3-6-5-4v-4l-8-2-1 3-9-1-11-3h-4v-2l-4-1 4-1h1l-12-6-8-1-18 1-22 11-8 9h-2v4h-3l-1 3h-3l-6 2-1-3-1 5-4-2 2-4-3 1-1-6 1-2h-2l-1-4 7-8 13-10 3-1 2-4 10-7 12-4z" fill="#39383C"/>
<path transform="translate(1743,815)" d="m0 0 3 1h13l6-1 5 3 5 1 6-2 5 1 1 4 4 2 4-3-2 4-6 5-7 8-5 4-6 3-8 1h-10l-4-2 5-1-7-4h-1l2 1v2l-4 1v3l-8 1-3 5-1 5-1 28-1 48-1 10-1 4-1 6v23l-1 10v13l1 7v83l3 1 2 6 2 10v11l-2 22-4 6-5 4-8 2 4-4h-7l-2-3v-14l1-10-1-3 3-3-1-9-4 1-1-4-1-13v-80l-2-10 1-40 3-48 2-9v-39l-4-22h-2l-2-9v-6l5-6 3-2 6-1 12 1z" fill="#060506"/>
<path transform="translate(1249,546)" d="m0 0h12l4 1v4l13-1 1-3v2l5-1 2 1 3-1v2l10 1 11 4h29l10 1v3l16 3 1 2 27 1 7 8 2 7h-4l-2-1-1 4-10 2-15-1-19-4-8-1-6-2-18-2-17-1-1-3-23-2v-4l-1 1-8 1v-2l-4-1 1 3-2 4h-2v2l-5 5-2 3h-2l-1 2h-2l-3-1v-2l-5 2 1 2h-5l-1 2-5 2-4-2-1-2-2-1h3l3-3 3 1-1 2 5-1-1-2 10-4 2-6h-22v-2h18v-2l-8 1-11 1v1l-9 1-3-2v2l-3-1-1 1-4-1h-3l-2-1v2l-12 2-1 2-5 2-1-2-1 2-3-1-6 3v3l3 5-3 1-8-1 2 4 2 2v3l-5 3h-4l1-5h-2l-3-6 5 1-1-7-5 1v3l-5 1 3 1v3h-2l-1 7-5 6h-2l-2 4-6 4-12 2-1 3-6 4-16 9-11 1-5-5-5-9-2-4-2-2 4-6-4-2-1 3-4 2-2-1v-6l2-2h4v2l9-6 4-2v2h2l2-5 7-1 11 3v-2h2l1-8 5-3 7-4 8-2 25-9 21-8 11-4 16-1 7-1 4 1 19-1 6-2z" fill="#060506"/>
<path transform="translate(1814,468)" d="m0 0 6 3 5 5 1 5-4 4-6 10-9 8-14 10-8 6-5 5-13 8-20 11-49 22-6 2h-12l-6-1-12 1-15-1v3h-9v-2l-12-1v-1l5-1-4-1 1-7-2-6-1 13h-20l-19-2-28-2 53 5 14 1v2h10v2h-35l-2-2-20-2-25-4-15-1h-17l-12 1-2 1-2-1-1 2-1-1h-10l-3 1v-2l6-1v-2l-2-1-5-2-1 4-1-2 1-2-3 1-4 2-2-1-1-2h4l-1-3 3-2 1-3 10-5 15-3 4-1 3-1h38l17 2 11 2 8 4 17 1h25l51-3 19-3 12-3 3-2-3-1 8-5 12-5h4v3l16-8 14-9 11-8 14-12 14-15 4-5h2z" fill="#060506"/>
<path transform="translate(603,839)" d="m0 0h6l4 5 2 5-1 4-2-1-1 7-2 8-4 10-2 12-3 11-3 10-6 19-4 20-2 12-5 15-8 20-8 16h11l10-4 6-3 12 1h9l8 4v2l14 1 3-1 1 3-5 2v12h2v2l9-1-4 3h-78l-18 1-17 4-25 5-9 4-9 3-7 4-1 7h-2v-2l-2-1 2-3-2-1 4-4 11-7 5 1-1-6-6 4h-2v-2l5-2-3-3-5 1 5-5 6-2-4-1-5 1-5 2 6-7 15-4 19-4 34-6 5-1-2-5 2-1-1-3h-2l-2-4 1-7 5-16 7-15 4-22 6-18 5-22 1-4h2v-2l-2-1 2-3 2-13 9-9h2l-1-3h2v2h2l-1-4 1-2h2l-1-4-6-5-1-3 5-3z" fill="#343336"/>
<path transform="translate(1e3 835)" d="m0 0h20l5 5v10l-2 7 1 9 2 6h2v2h2v2h2v2l4 2 6 4 27 9 7-3h10l3-2 14-1 22-5 13-5 12-9 18-12 8-4 9-7 5-1 12 2-2 3 6 5-4 4h-2l-1 5 3-2-2 5-4 5h-2l-2 5-5 9h-3l-1 3-4-1-1 6-1-4-4-1 3-2h4l-1-3 4-1-1-6-6 2v2l-10 6h-2v3l-2 1v3l-8 1v3l-3 1 1 2-6 3-11 4-13 3-29 3-3-3 16-2 1-1-12 1-9 3h-28v1h-10l-8-2 3-1h5l-9-2-12-3-3-1v-2l-5-2-4-5-6-6-4-7-3-6-1-3v3l2 3-2 2-4-6-1-12v-19l2-6z" fill="#070608"/>
<path transform="translate(1087,763)" d="m0 0 5 2v20l2 9 3 3v2l4 2 8 11 7-1v-2l7-3 1-7-1-4-21-6-4-1 1-7 4-6 7-3h5v3l-1 2 6 1 2 12 4 4 6-7 3 1-2 10-5 14v2l19-5 8-3 2-3 11-3 13-7 2-5 12-9 12-6 9-6 8-3 2 1-13 7v2l10-4 4-3h2v5l-5 6-7 8-13 13-10 7-17 10-16 8-15 7-11 3-15 2h-27l-3 1-4-3-16-3-14-3h-16l-1-4 1-2h-6v-3l5-1 1-2 3-1-9-2h-2v-2l6-1v2h7l1 3 9 3 4 3 12 2 3-2h3l9 1 8 1 1 2-12 1 2 1h16l27-1-5-4-2-2 3-1-3-1-22-1-9-2-8-5-12-2-5-1-2-1v2l-9-2-2-3-11-4-3-2v-3l-1-3h3l1-8h-9l-8-1 2-4 6-3 6-2 7-3h4v2h2v-3h2v3l4-2h8l9-1 5-3 7-1z" fill="#3B3A3E"/>
<path transform="translate(1531,819)" d="m0 0 8 2 3 2v10l-6 12-8 10-13 10-5 5-19 8-3-1 12-7-13 7-12 5-7 4 1 2-10 2v-1h-6l-5 1-1 2-9 1-1 2h-8l-3-1v2l-6 2-7-1-13-1-1-2-7 1-4-1h-8l-5-1v-3l-4-1-3-1-7-3-3-3v-3l-3-1-1-3h-2v-2h-2v-2l-7-1-1-2 1-2-4-1-3-3v-3l-3-1v-2l-5-2v-2l-6-2-2-2v-7l3-7 8-4 5 1 5 5 1 4 4 5 2 1v2l4 2v2l4 2 16 12 7 3 8 1 4 2 12 3 1 1 2-2v3l1-2h3l1-12 2-2h3l2-2 4 2 2 5 1 3h5l1 1 22-6 9-2 3-2 10-3 7-4 12-5 11-8 13-13 8-6z" fill="#050405"/>
<path transform="translate(1400,738)" d="m0 0h17l1 9v26l1 3h2l2 5h5l5 1h12l5-1v-2l4-1 2-4 4-16-1-2 2-6 2-2 4-1 1-3 6 3h2v-3h2l1 3 2 1 1-2 2 3h4l1-5 1 2h2v-2h2v4h3l1 2 2-3 3 1-1-4 5-1v3h3l1 5h2v2h2v-4l6 2 2 1v2h2l2 2 2 4-2 2-2-1-1 5-2-4 1-2-7 6-1 2h-2v5l-2 3h5l-3 3-14 2-7 6h-5l-7-2h-11l-5 3-7 7-9 3-6 1h-15l-15-4-4-3v-2l-4-1-4-3v-2l-3-1v-2l-6-1-2-4-8-1-8-6-10-8-2-3v-8h-4l1-2-4-1 1-3 4-1 24-1 2-2z" fill="#FCFCFC"/>
<path transform="translate(1756,700)" d="m0 0h19l15 3 7 4 2 4h3v2l4 1 10 9 13 11 3 5 1 5 3 7 1 6v19l-2 13-6 8-8 16-8 13-10 10-10 4-15 3-2-1 10-9 13-13h2v-2l15-15-5 4-12 11v-3l3-4 2-9 8-14 3-7 3-5v-9l-3-13-9-13v-3l-9-7-5-2-8-4-11-2-17-1-2-1-23 5-6 3-4 5-8 6-9 10-2-4-5-5-5-6 1-5 7-7 10-8 6-5 12-6 14-3z" fill="#070607"/>
<path transform="translate(411,718)" d="m0 0 7 1 7 6 1 2v11l-3 6-4 3-14 2-5 1-4 2-14 1-15-1 1-2h5l-1-1-2-1h-12l-4 1 10 2-2 2-27 6-18 5-9 2-13 1-4-1-19 3-2 6-2-1v-3l-9 3-4 1h6v2l-3 1 4 2-3 2h-3v2h-5l-2-4v-19l3-1 2-3h2l1-5 9-3 35-7 23-4 33-8 2-2v2l3-1 21-1 13-1 8-4 5-4z" fill="#040304"/>
<path transform="translate(1105,215)" d="m0 0 5 3 5 9v14l-3 7-8 11-8 6-10 9-11 9-13 10-4 2 6-7-8 6-18 18-14 11-10 9-5 5-3 4-5 6-10 6-12 2-1-2h2l-3-5-2 3-2-4 1-5 15-14-5 2-4 2 3-5 13-12 7-7 9-7 2 1-12 11-8 8 5-4 11-11 13-10 10-6 13-11 8-7 7-6 7-8h-1l-8 8-2-1 13-13 7-8 5-4h3l4-3 2 1v2l7-1 2-5 1-4h-2l-2-5 4-8z" fill="#060506"/>
<path transform="translate(484,1027)" d="m0 0h7v3l-6 2-2 2 5 2v2l-5 2v2l6-4h2l1 6-7 1-10 7h-2l1 2v3 2l-1 4-4 4h-2l-1 4-1 3v10l1 3h-3v2h2l1 6-1 2h2l1 7-3 8h2l2 4v-2h2l-1 7 1 7 3-1 1 5 2 2v3l-2 1v17l2 1h-2v33l-6 31-4 16-2 5-1 1h-10l-1-1v-17l1-15 3-14 1-34 1-19-1-7-3-15-3-5-2-17v-19l-4-1v-7l1-4-1-4 7-8 14-14 8-7 2-3 7-3z" fill="#040305"/>
<path transform="translate(1e3 1212)" d="m0 0 12 1 5 1v-2l15 2h18l4 2 1-2 2 1 16 2 53 9 9 1h63l7-1 1 1h23l1-2-10-1v-1l29-2 4-1h7l-2 3h5v8l-1 5-2 1v3h-19l3-1v-2l-4 2v2h-10v-3l-5 1-2-1-1 2-9 1-1-3-2-1 1 4h-3v-6h-2v6l-2-1v-3h-2v4h-9v-3h-6v2h5v1l-18 1-9 1h-7l-1-1-3 1v-2h-4v2l3 1-6 1v-4l-2 1v3h-14l-7-2-1-2-9-2-5 1h-7l-29-6-9-2 1 3-4 1h-7l-5-1v-2h2v-2h-2v-2h-8l-9-1-3 1-9-3-9-7-10-4-4-2z" fill="#050405"/>
<path transform="translate(1e3 1027)" d="m0 0 8 2 9 7 11 13 8 10 7 7 13 9 11 6 16 11 25 13 19 8-2 1v2h-2v-2l-7-1-6-2v10l4 1 2 3h-3l12 5v2h3v3l12 2 25 5 16 3v2l10-1v-2h19v2h5l1 2-6 2-27 1-24-2-23-4-17-5-11-5v-2l-4-2v-2l-6-2-2-3 6 1-9-6 2-1 9 4v-2l-4-1-13-6-7 1-3 1-6-3h-5l-2-3h2v-2h-3l-2-3-4-2-2-2-6-2-1-4 5-4-7 2-5-1-4-2v-2l-5-1-5-2-2-2-1-2-4-2-3-4-3-1v-2l-4-2-7-10-1-2v-6l7-12 1-3-9-1-2-2-4-1 5-2-3-2z" fill="#38373B"/>
<path transform="translate(467,1067)" d="m0 0h1l3 25v18l3-1 1 2-1 2 4 1 2 9v7l1 10v10l-1 5v25l-2 7-1 2-2 25-2-1-3 9-2 9-2 6h2l1 2v8l-1 11 5 10 7 9 10 7 8 4h66l2 2-38 1h-28l-3-1-1 4 5 3 5 4v2l7 2 4 3 6-2 9-1v2h10l3 2v-2h16v2l7 1h23v2l6-1 4 2-40 1h-11l-1 2v-2l-8 1-4 2-6-3-1 2v-2l-9 3h-3l-1-3h-28l-1-2-6-4h-4v-3h-2l-5-5-1-3h-2l-1-4 1-2-2-1h2v-3l-9 3-4-2-1-3-4-2-3-7-1-10v-21l1-28 4-9 2-13 2 4-2 12-1 13v17h10l2-5 4-16 4-21 2-10 1-34-1-2v-12l2-4-1-4-2-5h-2l-2-8 2-6h-2v2l-2-1v-3h-2l2-11v-4h-2v-8h-2v-2l2-1-1-5v-9z" fill="#363539"/>
<path transform="translate(430,505)" d="m0 0 10 3 7 2 8 8 1 6 1 25v2l4 1v63l5 8 3 1v2h2v7l-1 7-2 3h-5v2l-3 2 2 7 2 1v-2h-2l1-3v2h2v2l5-1 4 5v5l1 3 7 1v3h3l2 4 1 5-3 1 1 4-1 2h2v2l-3 1-2-2-1-4-2-5h-2l2 5-3 1-2-4v5l-1-2-6-2-5-5-6-7v-3h-2l-4-7-2-9-1-9-2-10-1-9v-12l-1-3-1-39-3-1-1-2v-7l1-4v-10-3l1-5h-2l-2-8h2l-2-8-7-5v-9z" fill="#050405"/>
<path transform="translate(810,321)" d="m0 0h11l15 1 2 1v2l12 2 12 4 34 17 17 10 17 12 13 13 8 10 14 19 12 17 3 6-1 2-4-1 1 4-1 4h2v8h-2l-1-7-3 1v-3l1-2v-11l-8-12-4 7h-2l-2 4h-1v-6h-2v-2h-4l-2-8h-4v-5l-2-1 4 1h2l-3-3h4l-4-2 1-3 3-2-2-1-1 2-3-3v-2h-6l-2-5v-6h-2l1 7-2-3-2-2-2 2h-3l-1-3h-5v-2l2-1-5-1v-3l-3 1v-3h-2v-3h-3l-1-3-10-3-9-4-8-3-6-1-14-4-5-2 1-2-2-2v-1l-6-1-1-2-22-2h-16l-15 1h-15l2-2 7-3 10-13 3-3z" fill="#050405"/>
<path transform="translate(603,839)" d="m0 0h6l4 5 2 5-1 4-2-1-1 7-2 8-4 10-2 12-3 11-3 10-6 19-4 20-2 12-5 15-8 20-4 7-7 1-6-2v-2h-2l-2-4 1-7 5-16 7-15 4-22 6-18 5-22 1-4h2v-2l-2-1 2-3 2-13 9-9h2l-1-3h2v2h2l-1-4 1-2h2l-1-4-6-5-1-3 5-3z" fill="#050406"/>
<path transform="translate(947,1150)" d="m0 0 2 3 3 7 5 12 7 8 9 6 17 10 11 6v2l4 1-1 3 5-1-1 3h2v-2h7l12 3 2 3-8-1-2-1v2l-17-1 14 7 7 6 10 2 3-1 15 2v2h2v2h-2v2h14l1-3 19 3 26 5 1-2h7l7 3v2l7 1h13l1-3h2l1 3 2-1v-2h4v2l4-2v2l29-3v-2h6v3h9v-4h2l1-3v6l1 1v-6h2v6h3l-1-4 3 1v3l9-2 3-1h5v3h10l-1-3 5-1v2h14l1 3-32 4-34 2h-30l-19 1h-21l-42-6-16-3-7-1h-19l-11-1 1-3h-9l-9-2v-1l8-1-11-4-6-2 2-2-1-2-4-1-5-2-3-1v-2l-7 3 1 2h-2l-1 2-6-2-8-4-2-4-3-1v-2h-2l-1-2-6-3-9-8-8-7-3-10h-2l-1-8 2-1 4 11 6 10 6 5h2v3h2l-1-9-1-12-3-1 1-3-3-10 1-1-3-3z" fill="#403F43"/>
<path transform="translate(877,358)" d="m0 0 10 3 12 5 8 3v3h3v3h2l1 2h2v3l4-1 2 3h-3v2l5-1 2 3 5-2 2 3v-4h2l1 7 1 3 6 1v2l7 2-4 3v2l4 2-4 1 4 4-6-2v5l4-1 2 3 1 5 3 1v2h2l1 5 2-1-1 5 3 13 1 3 1-3h2l1 7 2-4 2 2 1 9h3l2 8 4 13 1 5h2l4 14v7h2l4 11 4 12h-2l1 2 1 17-1 17-3 17-6 26-8 24-9 17-11 16-11 13-8 8-8 7-12 11-10 6-4 2-5 4-9 7-15 12-10 5-9 3-9 1-8 1-31 8-18 6-4-1 5-3 30-11 7-1 12-3 11-2 18-6 14-8v-3l11-7 16-10 10-8 11-9 9-9 14-19 9-15h2l2-5 5-12 5-15 3-12 3-15 4-21 1-10v-14l-1-21-5-12-2-10-3-9-3-8v-5l-9-16-8-11-8-16-7-10-3-4v-2h-2v-6h-2l-2-4-5-3v-2l-1 2-5-1v-3-2h-2v-4l-1 2-6-2-1-3-5-2v-3l-6-5-5-2-2-4-11-6-9-4 1-2h3 2l-4-2z" fill="#38373B"/>
<path transform="translate(801,107)" d="m0 0 8 2 2 5-2-1v-2h-4l4 8v10l-7 36-10 53-3 16-1 23-2 5-5 6-5 3h-6l-1-2 1-2-6-3 2-18 3-9 2-19 2-10 3-23 4-10 2-11 4-9h2l7-14v-5l-6-3v-22l7-3z" fill="#060506"/>
<path transform="translate(484,201)" d="m0 0 6 1v2l5 1 7 10 7 13 3 4 1 12 6 7 6 8 5 11 10 24-1 3 2 2 1 4 1-2 2 3 2 1v2l2 2v3l1 3 3 3 1 6-1 2h2l-2 10-3 3-8 3-2-1-3-6-3-1-1-9h-2l-1-7 1-2h-2l-1-6h-3l-1-3-2-1v-3l-3-1-1-8-5-10v-3h-2l-4-9 1-3-2-1 1-2h-2l-1-2-1-13-2-3-3 3h-2l-1-6-4-2v-2l-4-2v-2h-2v-2l-4-2-6-9 1-12 5-9z" fill="#37363A"/>
<path transform="translate(1250,748)" d="m0 0 8 1 8 6v9l4 7-3 7-7 9h-2l-2 4-8 15-3 9-12 23-10 16h-2l-1 4h-3v2l-4 4-3 4 2 2-3 5-6 7-9 14h-5l2-7 3-3-3-1-3 6-4 5-2-1 4-9 5-8 4-7h2l4-8-2 1 2-7 4-1 1-2-3-2-1-3 7-10 5-9 4-8 5-6 8-16 3-4v-4-11l4-7 2-12 3-9 4-4z" fill="#080708"/>
<path transform="translate(1517,537)" d="m0 0h38l17 2 11 2 8 4 17 1h20v3l-1 2-1-1-1 13h-20l-19-2-28-2 53 5 14 1v2h10v2h-35l-2-2-20-2-25-4-15-1h-17l-12 1-2 1-2-1-1 2-1-1h-10l-3 1v-2l6-1v-2l-2-1-5-2-1 4-1-2 1-2-3 1-4 2-2-1-1-2h4l-1-3 3-2 1-3 10-5 15-3 4-1z" fill="#060507"/>
<path transform="translate(1143,568)" d="m0 0 3 1v2l6 7 2 1 1 5-6 2 3 1v3h-2l-1 7-5 6h-2l-2 4-6 4-12 2-1 3-6 4-16 9-11 1-5-5-5-9-2-4-2-2 4-6-4-2-1 3-4 2-2-1v-6l2-2h4v2l9-6 4-2v2h2l2-5 7-1 11 3v-2h2l1-8 5-3 7-4 8-2z" fill="#070607"/>
<path transform="translate(1146,754)" d="m0 0h1v7h26l12-1 1-2 7-1 2 2h-8l3 1h14l6 2 11-3h6l-1 3-11 4-2 1-3 5-12 7-7 4-8 6-2 4 2 1-12 5-5 3-9 2-2 3-14 5-14 3 1-6 5-14 5-20 3-9 1 3 2-6z" fill="#FBFBFB"/>
<path transform="translate(741,489)" d="m0 0h15l29 5 10 3-3 2 15 3 13 6 8 2 4 7h-3l1 5 1 4h-3l-3 2v-2l-4-1-4-6-2-1-1 2v-3l-8 1v-2l-3 1-7-3-7-1 1 1-4 1-4-1v-2l-2-1 1-2h-3v-3h-3v-8l-5 1v2l-4 1v2h-6v2h-12v-11l-1 1-2 11h-3l-2 4-11 5-10 5-8 9h-2v4h-3l-1 3h-3l-6 2-1-3-1 5-4-2 2-4-3 1-1-6 1-2h-2l-1-4 7-8 13-10 3-1 2-4 10-7 12-4z" fill="#050406"/>
<path transform="translate(1087,763)" d="m0 0 5 2v20l2 9 3 3v2l4 2 8 11 5-1 9-2-1 4 4 2-12 2h-15l-9-2-8-5-12-2-5-1-2-1v2l-9-2-2-3-11-4-3-2v-3l-1-3h3l1-8h-9l-8-1 2-4 6-3 6-2 7-3h4v2h2v-3h2v3l4-2h8l9-1 5-3 7-1z" fill="#FBFBFB"/>
<path transform="translate(586,1139)" d="m0 0 10 1-1 2h3l1-2h12l16 5 11 4 1-7h1l1 9 2 4 3 1-2 3-1 10-2-4-3 3-4 1h-8l-3 2-3-1v-3h-10l-10-1h-9l-2-1h-39l3-1 1-13h-2l-1-3-2 7-9 1 3-2 6-1-2-3h-3l-1 3v-2l-5 1v-2l10-3 5-2h3v-4l5-1h10l4 2 5-2z" fill="#080708"/>
<path transform="translate(1787,346)" d="m0 0h7l6 4 1 7-3 8h-3v3h-2l-2 4h-2l-2 4 1 3-9 11-7 9-6 8-8 7-4 5-7 8-10 9-4-1-3 1-1-4-18 4-16 1 2-1 1-3 14-5 5-1 11-11 1-2-2-1 5-6 8-7 4-4h2l1-3 2 1v1l2 1-4 5v3l2 1-3 10h2l1-3 2 4 5-11h2v-9l5-8-6 3 2-4 4-2 2-7 2-1 4-8 2-3-2-3 2-7 5-5 6-4z" fill="#090809"/>
<path transform="translate(746,494)" d="m0 0 3 1v9l-1 2 7-1 4-1 2-1 5 1v-2l5-4h4l1 6-1 2h3v3h3l1 5h6l1-2 10 2 5 2 3 1h7l4 2 3 4v2l5 2v-2l4 1-1-8-1-2 7 2 8 10 5 12 3 19-2 2v3l-2 2 3 1-2 4-1 5-5 10-1 28-4 16-4 8-7 8v-3l-1-2-6 4-3 5-6 3 1-3 3-2 1-4 5-4 5-5 6-5 3-14v-4h2l-1-6 1-8 1-19h-2l1-3v-13l-2-5-2 1-3-3-2-12 1-4-3-2-1 2-5-3-3-6-5-4v-4l-8-2-1 3-9-1-11-3h-4v-2l-4-1 4-1h1l-12-6-8-1-17 1v-3h3z" fill="#5C5B5E"/>
<path transform="translate(490,689)" d="m0 0 3 1v2l6-2 6 3 7 2 1 4 5 6-5-2v2h2l-1 3 3 5 8 4h3l-3-4 7 1 1 3 4 2 3 4-1 4-2 4 11 6 7 5 7 1 1-2h2 3l1-2 1 2 4-2 5 3-1 4h-2v2l-6 2 3 1v2l10 3 3 2-10-1-12-3v2h-3l1 4h-2-1l2 5 1 2-4 1-1-1-1-7-4-2-3-9 1-2-2-1v4l-9-2-1-2-4-1-10-2-8-1-10-9-4-5-4-11-4-5 1-4-7-8-3-7 4-1h1z" fill="#030203"/>
<path transform="translate(1332,762)" d="m0 0 5 3 1-2 5 3v2l7 2 1 3 5 1-2 2-10-4v-2l-4-1v2l9 5 9 4 9 1 7 3 3 2v2l3 1 9 6v-2l3 1 1 4-2 3h1l1-2 9 2 3 2v2l3-1 4 1 7 1 15 1h1l3-1 4 1-1 1 7 2h11v-2l-3-1v-2l-2 1v-3h-17l4-2 21-3 19-4 7-3 3 2h24v1l-9 2-4 2-5 1v2l6-1h6l-5 4-8 3-25 4-9 3-26 6h-8v-2h-9l-5-5h-2v2l-6-1-5-2v-2l-4-1-19-12-11-5-7-4-7-1-14-13-7-10z" fill="#3C3B3E"/>
<path transform="translate(534,1206)" d="m0 0h3l1 3 1-2h2l4 5 1 4-1 3h39l3 4 5 2 2 5-5 3h-4l2 6 3 2v2l11-2 12-2 5-1 1 2 2 1-5 3-7 3-4 2-4-1-19 2v-2l-29-1-5-2v-2l-9-2v-2l-5-1-4-13 1-9 2-9z" fill="#343337"/>
<path transform="translate(1224,764)" d="m0 0 2 1-13 7v2l10-4 4-3h2v5l-5 6-7 8-13 13-10 7-17 10-9 5h-4l-1-2h-2v2h-3l-1-3v-9h-2l1 6v8l-5 1h-18l3-2 4-2-3-1-7-1v-1l12-3 12-6 3-5 11-3 13-7 2-5 12-9 12-6 9-6z" fill="#09080A"/>
<path transform="translate(942,701)" d="m0 0 4 2-5 4-5 2-2 5-10 11-4 1-20 12-21 9-16 8-15 6-16 6-13 3-6 4-14 5-10 4-6 3h-3v2l-3 1-5-5v-2l4-1-1-3 1-4 7-1h3 5l5-1 1-3 10-4 12-4 9-4 7-3 11-3h6l1 2 12-5 13-5 9-4h2l1-3 6-4h5v-3h-2l-5 1 2-4 13-6v-3h10l13-7 1-3z" fill="#343337"/>
<path transform="translate(1036,1230)" d="m0 0 14 1 2-1 1 4 5 1h9l1-3 19 3 26 5 1-2h7l7 3v2l7 1h13l1-3h2l1 3 2-1v-2h4v2l4-2v2l29-3v-2h6v3h9v-4h2l1-3v6l1 1v-6h2v6h3l-1-4 3 1v3l9-2 3-1h5v3h10l-1-3 5-1v2h14l1 3-32 4-34 2h-30l-19 1h-21l-42-6-16-3-7-1h-19l-11-1 1-4 6-1z" fill="#3C3B3F"/>
<path transform="translate(292,744)" d="m0 0 4 1v18l9-4 9-3 9-2v2l-12 4 17-3 2-1v2l4-1 1 2-18 5-9 2-13 1-4-1-19 3-2 6-2-1v-3l-9 3-4 1h6v2l-3 1 4 2-3 2h-3v2h-5l-2-4v-19l3-1 2-3h2l1-5 9-3z" fill="#353438"/>
<path transform="translate(877,358)" d="m0 0 10 3 12 5 8 3v3h3v3h2l1 2h2v3l4-1 2 3h-3v2l5-1 2 3 5-2 2 3v-4h2l1 7 1 3 6 1v2l7 2-4 3v2l4 2-4 1 4 4-6-2v5l4-1 2 3 1 5 3 1v2h2l1 5 2-1-1 5 3 13 1 3 1-3h2l1 7 2-4 2 2v9l-4-4-5-6v-2l-4-2-8-16-8-11v-2h-2v-6h-2l-2-4-5-3v-2l-1 2-5-1v-3-2h-2v-4l-1 2-6-2-1-3-5-2v-3l-6-5-5-2-2-4-11-6-9-4 1-2h3 2l-4-2z" fill="#454548"/>
<path transform="translate(1088,1094)" d="m0 0 5 2 27 13 10 4-2 1v2h-2v-2l-7-1-6-2v10l4 1 2 3h-3l12 5v2h3v3l12 2 25 5 16 3v2l10-1v-2h19v2h5l1 2-6 2-27 1-24-2-23-4-17-5-11-5v-2l-4-2v-2l-6-2-2-3 6 1-9-6 2-1 9 4v-2l-4-1-4-3h2l1-6 5-3-16-8-5-3z" fill="#38373A"/>
<path transform="translate(852,568)" d="m0 0 2 4 2 2 1 4v13l-1 1-1 18-13 28-7 10-11 9-2 1-13 1v-3-3l8-5 2-4 7-4v4l5-5 4-6 4-13 1-6 1-28 5-10z" fill="#040304"/>
<path transform="translate(228,437)" d="m0 0h7l9 3 11 5 7 2v2l8 1 13 4 3 3h-6l9 2 8 1 6 3v1h-6v4l-6 1h-13l-4-2v-2l-6-2-6-3-7-2v-2l-9-2 3 2h-17v3l4 4-5 1-7-3 3-3-6-1-2-5 1-9 5-5z" fill="#050406"/>
<path transform="translate(801,107)" d="m0 0 8 2 2 5-2-1v-2h-4l4 8v10l-7 36-5 26-2-2v-14l3-13-1-6-1-3-4 4-5 8h-2l-3 11-2 2 2-14 4-9h2l7-14v-5l-6-3v-22l7-3z" fill="#060506"/>
<path transform="translate(862,332)" d="m0 0 6 2 28 14 17 10 17 12 13 13 8 10 14 19 12 17 3 6-1 2-4-1 1 4-1 4h2v8h-2l-1-7-3 1v-3l1-2v-11l-8-12-4 7h-2l-2 4h-1v-6h-2v-2h-4l-2-8h-4v-5l-2-1 4 1h2l-3-3h4l-4-2 1-3 3-2-3-6v-2l-4-2-10-11 1 5-4-1v-7l-9-8-17-10-28-13-6-4-6-5z" fill="#37363A"/>
<path transform="translate(1747,393)" d="m0 0 2 1v1l2 1-4 5v3l2 1-3 10h2l1-3 2 4 5-11h2l1-2v2l5 1-2 4-7 7-4 6-8 8-7 5-3-1-3 1-1-4-18 4-16 1 2-1 1-3 14-5 5-1 11-11 1-2-2-1 5-6 8-7 4-4h2z" fill="#3B3A3E"/>
<path transform="translate(467,1067)" d="m0 0h1l3 25v18l3-1 1 2-1 2 4 1 2 9v7l1 10v10l-1 5v25l-2 7-1 2-2 25-2-1-3 9-2 9-3 4 1-9 4-16 4-21 1-34-1-2v-12l2-4-1-4-2-5h-2l-2-8 2-6h-2v2l-2-1v-3h-2l2-11v-4h-2v-8h-2v-2l2-1-1-5v-9z" fill="#343337"/>
<path transform="translate(777,497)" d="m0 0 30 5 13 6 8 2 4 7h-3l1 5 1 4h-3l-3 2v-2l-4-1-4-6-2-1-1 2v-3l-8 1v-2l-3 1-7-3-7-1 1 1-4 1-4-1v-2l-2-1 1-2h-3v-3h-3l1-8z" fill="#070608"/>
<path transform="translate(1250,748)" d="m0 0 8 1 8 6v9l4 7-1 4h-5l-1 2-1-2-5 1h-3-5l-5-1-1 2h2v5h-3v3l-5-1-1 3v-2h-2l1-7 3-4 2-12 3-9 4-4z" fill="#060506"/>
<path transform="translate(1518,765)" d="m0 0h2v3l3 1 3-2 1 3 2-3 1 7-3 10-6 10-10 6-14 1v-2l8-3v-1l5-1h-23l4-7 4-2 2-4 13-3 4-1-4-1 2-5h3l1-4h2z" fill="#060507"/>
<path transform="translate(449,509)" d="m0 0 14 5-3 1 2 25 3 3 1 35 3 29 1 10-3 3 1 4-3-1-5-9 1-62h-6l1-9-1-19-1-8-5-2-2-4z" fill="#363539"/>
<path transform="translate(1014,1037)" d="m0 0 4 2 14 18 9 10 2 4v1l-10-1-8-3-2 1-8-1-4-4-5-9v-6l6-10z" fill="#030203"/>
<path transform="translate(290,747)" d="m0 0h3l1 3v13l-13 2-11 2h-14v-14l2-2 14-2z" fill="#040304"/>
<path transform="translate(482,208)" d="m0 0 5 1v2l7 1 7 8 5 7-2 4-10 10-4-2-9-9-3-1-3-5v-6l5-8z" fill="#030203"/>
<path transform="translate(1366,565)" d="m0 0h27l7 8 2 7h-4l-2-1-1 4-10 2-15-1-2-2v-4h-2z" fill="#070608"/>
<path transform="translate(470,635)" d="m0 0h1v9l1 4-1 2 5 1 3 3-1 5 2 1-2 3h2l1 2h3v3l5-2 2 2v2l5 5v2l3 1 2 3 8 1-2 4 3 2-3 2-1-3v3l3 5-4-1-7-3-5 1v-2h-2l1 4-5-2-2-3 2-3h-2v-6l2-1-2-9h-3v-3l-7-1-2-3-1-7-4-2h-3v-2l-1 1v2l-4-2-1-7 4-1v-2l3-1 2 1z" fill="#414044"/>
<path transform="translate(591 1e3)" d="m0 0 12 1h9l8 4 1 3-1 7-2 2-31 1-2-1-2-5 1-8z" fill="#050405"/>
<path transform="translate(1071,1085)" d="m0 0h5l10 7 2 1-1 3 16 8 5 3-4 2-3 7-6-1-2-1v-2l-6-2-10-5v-2h-2l-5-6-8-7 1-2 1-1 3-1 4 2z" fill="#050405"/>
<path transform="translate(847,566)" d="m0 0 3 1-2 4-1 5-5 10-1 28-4 16-4 8-7 8v-3l-1-2-6 4-3 5-6 3 1-3 3-2 1-4 5-4 5-5 6-5 3-14v-4h2l-1-6 1-8 1-19h-2l1-3v-7l1 4 5-3z" fill="#38373B"/>
<path transform="translate(1454,737)" d="m0 0h2v2h2v4l3 1 2-5 2 1-1 3 2-1 1-3h2v2h2l1-2h2l2 3 4-1 2 5-1 2-3-1v-3h-2l1 4h-3l-6-3-4 4-3 2-1 5 1 2-2 10-5-5-1-2-4 2-2 2-1-4-3-1 3-1-1-2h-1l-1-10-1-2 1-2 8-3z" fill="#3F3E41"/>
<path transform="translate(993,465)" d="m0 0h1l7 25 5 22 2 14 1 16-1 33-2 6h-2v-9l1-8v-25l-7-38-3-17h-2l-1 3-6 4 2-5 2-6 2-14z" fill="#39383C"/>
<path transform="translate(755,1230)" d="m0 0h1v50l-3 9h-3-3l1-5-4 1-1 5h-6l1-4 2-2h-3l-1-5-1 2-12 2-11-1v-1l18-2 2-2 1-19 2 4 1 4-1 2 3 1 5 1 4-1 1 3 6 2z" fill="#323135"/>
<path transform="translate(411,718)" d="m0 0 7 1 7 6 1 2v11l-3 6-4 3-14 2-5 1-4 2-14 1-15-1 1-2h5v-2l7-2v2l7 1-1-3 6-3h14v2h4l3-3 6-2 2-4 1-4h2l-1-3h-6v-3l-1-3v-2h-5z" fill="#323135"/>
<path transform="translate(355,481)" d="m0 0 16 1 9 2 10 5 10 4v2l10 1 6 2-5 5-2 5-6 1-1-3-10-3-7-3 3-2 1-5-14-5-18-5z" fill="#030203"/>
<path transform="translate(589,622)" d="m0 0 2 3 4 7v3l10 2h3l1 1h3v2l-2 1 3 2-2 2 7 1 5 2v4l-1 3 15 1 1 4h-6-3l-8-2-5-2v-2l-6-2-5-2-4-5-5-4h-2v-2h-2v-2l-2-2 1-2h-2l-2-7zm36 39h5v3l-5-2z" fill="#343337"/>
<path transform="translate(358,728)" d="m0 0 1 2 3-1 21-1h13l2 2-12 2-27 3-29 6h-3v6l-5 1-2-5-17 1-5 1-2-2 28-5 33-8z" fill="#38373B"/>
<path transform="translate(1242,774)" d="m0 0 5 1 2-1v2l6-1h2l5-1 2 1h4l-2 5-6 7h-2l-6 12h-3l-2-1 3-4h-3l1-5h2l-2-7-1 3v-2h-2l-2 5-4 5h-2l-1 3-3-1 2-10 5-2v2h2v-3h3v-5h-2z" fill="#525154"/>
<path transform="translate(1560,1196)" d="m0 0 1 3 4 1v-3l4-1h13l1 2v7l-3 5-3 1-1 3-10 2v-4l-2-1v-6l-2 2-1 5-3 1 1-13z" fill="#050405"/>
<path transform="translate(1110,772)" d="m0 0h5v3l-1 2 6 1 2 12 3 3v4l2 1-3 1-1-4-21-6-4-1 1-7 4-6z" fill="#3A393D"/>
<path transform="translate(1246,562)" d="m0 0h7v2l8 1h4l1 2-2 4h-2v2l-5 5-2 3h-2l-1 2h-2l-3-1v-2l-5 2 1 2h-5l-1 2-5 2-4-2-1-2-2-1h3l3-3 3 1-1 2 5-1-1-2 10-4 2-6h-22v-2h18v-2l-8 1-2-1 3-3z" fill="#4A494C"/>
<path transform="translate(796,135)" d="m0 0 2 1 2 12 4 1-2 16-5 26-2-2v-14l3-13-1-6-1-3-4 4-5 8h-2l-3 11-2 2 2-14 4-9h2l7-14v-5z" fill="#37363A"/>
<path transform="translate(746,494)" d="m0 0 3 1v9l-1 2 7-1 4-1 2-1 5 1v-2l5-4h4l1 6-1 2h3v3h3l1 5h6l1-2 10 2-1 3h-2l2 3-5 1-9-4-9-3-8-4-8-1-17 1v-3h3z" fill="#3A393D"/>
<path transform="translate(837,528)" d="m0 0h2l4 5 2 10 6 16-5 5-6 1v-4h-2l-1-5h-4v-9h2l1-11z" fill="#050405"/>
<path transform="translate(611,852)" d="m0 0 1 4-3 11-4 10-2 12-3 11-3 10-6 19-4 20-2 12-3-4 1-13 7-22 3-10 3-11v-6h2l-1-3 4-15 2-7 4-11 3-6z" fill="#363539"/>
<path transform="translate(612,609)" d="m0 0 2 1 1 4 2 1v3h3v2l4 1 8 6v2l4 1 1 3-5 2 5 4 5 2-4 3-2-2v-1l-7-2-3-1-1-5-6-1-1-3-4-1v-2h-3l-3-10 3-4-1-2z" fill="#38373B"/>
<path transform="translate(915,952)" d="m0 0h1l1 15 4 1-1 9-3 1v7l1-2 2 1v59l-3 1-1-3-1-23z" fill="#3B3A3E"/>
<path transform="translate(1810,467)" d="m0 0h2l-2 7-10 10-7 8-10 9-18 13-16 9-10 5-2-1 1-4 19-9 12-8 16-12 10-10 9-11z" fill="#2D2C2F"/>
<path transform="translate(586,479)" d="m0 0h1v10l-2 4v-9l-1-1-2 18v9l2 6-1 4h-3l2 18 1 8v10l-2-1-2-13-2-5v-49h2l1-5h2l1-3z" fill="#565559"/>
<path transform="translate(1058,1214)" d="m0 0 7 1 65 11 25 2-2 2h-27l-43-7-5-1v-2h-8l-11-3z" fill="#353438"/>
<path transform="translate(1157,1123)" d="m0 0 9 1 6 1 95 2v2l-4 1h-19l-15 1h-41v-1l6-1h-13l-18-3-6-2z" fill="#424145"/>
<path transform="translate(448,1058)" d="m0 0 1 2-1 4v11l3 2 1 5v22l2 11 4 10 2 4 2-1-1 18-3 15h-1v-19l-1-7-3-15-3-5-2-17v-19l-4-1v-7l1-4-1-4z" fill="#37363A"/>
<path transform="translate(1359,878)" d="m0 0 4 4 7 2 6 2 10 2 9 1v-2h2v2l6 1 9 1 4 1 3 2 1 4-7-1-13-1-1-2-7 1-4-1h-8l-5-1v-3l-4-1-3-1-7-3-3-3z" fill="#3B3A3E"/>
<path transform="translate(1213,1223)" d="m0 0h11l14 1-4 2-1 1-11 1h-12l-3-1-8 1h-31l-12-1-2-2 9-1z" fill="#313033"/>
<path transform="translate(254,757)" d="m0 0h2v10l20-1v2l-5 2-1 5-2-1v-3l-9 3-4 1h6v2l-3 1 4 2-3 2h-3v2h-5l-2-4v-19l3-1z" fill="#3D3C40"/>
<path transform="translate(1537,556)" d="m0 0 13 2 29 3 32 3 14 1v2h10v2h-35l-2-2-20-2-25-4-15-1z" fill="#323135"/>
<path transform="translate(683,991)" d="m0 0h2l-3 24-4 10-2 13-7-1-2-1 2-4h2l-2-5 5 1-1-3-1-1-9-1v2h-5-3l2-1 1-4 6-1 12 3 1-10 4-19z" fill="#68686A"/>
<path transform="translate(539,308)" d="m0 0 3 1 1 3-2 5 4 1v2l4 2 1 5-2 3h-3l-1 3-5 1v-2l-3-1 2-1v-2l-2-1 1-2h-3l-2-7 1-7z" fill="#030203"/>
<path transform="translate(567,1220)" d="m0 0h17l1 7 1 5h-2v-2l-6-1-12 1-6 2-2 1h-6l-1-5-1-3 19-1v-2z" fill="#030203"/>
<path transform="translate(1450,430)" d="m0 0h12l21 2 13 2 9 2 2 2-12-1-7 2-41-5-1-3 4 1z" fill="#474649"/>
<path transform="translate(1563,1192)" d="m0 0h14l4 4-16 1v3l-4-1-1 1-1 12h2v-6l3-1 2 10-4-2-1 2-6-1v-11l1-6-7 1h-10l1-2z" fill="#343337"/>
<path transform="translate(723,884)" d="m0 0 2 1-10 8-8 8-12 16-7 10-6 13-5 16-3 6h-1v-10l7-17 8-13 7-11 9-11 12-12z" fill="#343337"/>
<path transform="translate(741,489)" d="m0 0h15l29 5 10 3-3 3-9-1-6-1v5l-2-1v-4l-6 1v-2l-21-4-15-2v-1z" fill="#343337"/>
<path transform="translate(614,1279)" d="m0 0 7 1 5 4h16l12-2 7-2 9 1-1 3-13 2-6 4v-2h-8l-1 1-14 1-7-3v-2h-3v-2h-4z" fill="#3B3A3E"/>
<path transform="translate(1787,346)" d="m0 0h7l-3 2-9 2v2l-3 3-2 10 2 1v3l2-1v3h2l-1 4h-2v-2l-7 4-2 6-3 1-1-2-3-1 1-3 2-1 4-8 2-3-2-3 2-7 5-5 6-4z" fill="#403F43"/>
<path transform="translate(1171,571)" d="m0 0 11 2-1 3-3-1-6 3v3l3 5-3 1-8-1 2 4 2 2v3l-5 3h-4l1-5h-2l-3-6 5 1-1-7 5-1v-3l7-1z" fill="#3C3B3F"/>
<path transform="translate(563,571)" d="m0 0 3 3 1 3 12 3h2l1 7-1 3v22l1 3 4 2 2 2 1 2-1 2h-2v-2h-2v-3h-2v-2h-2l-2-8v-11l-1-3-3-1 3-1v-2h-2v-3h-2l1 4-2 1v-6l-2-1 1-3-4-1-3-5z" fill="#343337"/>
<path transform="translate(1429,408)" d="m0 0 13 1 43 5 15 2 4 1v2l-38-2-13-2v-2l-11-1-12-2z" fill="#29282B"/>
<path transform="translate(519,271)" d="m0 0 5 1 3 10 1 2v6l-3 1v2h-5l-7-16-1-4z" fill="#030203"/>
<path transform="translate(1708,902)" d="m0 0 3 1-1 8-1 26-1 11 1 5-3 5-1 5-1 28h-1v-32l3-48z" fill="#343337"/>
<path transform="translate(470,635)" d="m0 0h1v9l1 4-1 2 5 1 3 3-1 5 2 1-2 3h2l2 4-7-1-2-3-1-7-4-2h-3v-2l-1 1v2l-4-2-1-7 4-1v-2l3-1 2 1z" fill="#333235"/>
<path transform="translate(949,398)" d="m0 0 5 5 5 7-1 6h2l1-3 1 3-3 7-3-1v-5h-4v-2h-4l-2-2h-3v-5l-2-1 4 1h2l-3-3h4l-4-2 1-3z" fill="#050406"/>
<path transform="translate(1331,830)" d="m0 0 4 1-1 4h-3v2l-5 2-1 5-2 1 3 2h2l2 4 3 2 4 4 3 2 3 3 1 3h2l2 4-5 1-1-2 1-2-4-1-3-3v-3l-3-1v-2l-5-2v-2l-6-2-2-2v-7l3-7z" fill="#3B3A3D"/>
<path transform="translate(1154,808)" d="m0 0h1l1 7v8l-5 1h-18l3-2 4-2-3-1-7-1v-1l12-3z" fill="#030203"/>
<path transform="translate(1173,927)" d="m0 0 2 1-6 11-7 10h-2l-2 4-6 10-6 8-5 8h8v1l-10 1 2-9 8-11 9-15 10-14z" fill="#323135"/>
<path transform="translate(1541,446)" d="m0 0 13 1 11 1 25 6 1 4-9-1-37-7-9-2v-1z" fill="#2C2B2F"/>
<path transform="translate(1265,1221)" d="m0 0h10v3h-2l-1 9-2-2 1-9h-3v13l5-1v-8h2v7l4-1h14l-1 2 2 2-4 2h-18l-1-2v3h-6l-4-2 5-1v-11l1-2-5 1-2-2z" fill="#4E4D50"/>
<path transform="translate(855,347)" d="m0 0h4v2h10l3 1v2l9 2 11 4h6v2l4 3-7-1-13-4-6-2 1 1-2 2-18-6-3-2 1-1-2-2z" fill="#302F33"/>
<path transform="translate(477,1165)" d="m0 0h1l1 11 1 4-2 7-1 2-2 25-2-1-3 9-2 9-3 4 1-9 4-16 4-21 2-22z" fill="#353438"/>
<path transform="translate(1170,996)" d="m0 0 21 1 1 2h-7l1 4-6 1h-3-6l-1-3h-16l-1 2h-5v-2l-4-1v-2l8-1 18 1z" fill="#5A5A5D"/>
<path transform="translate(1155,922)" d="m0 0 2 1-1 3-2 4 1 2-11 14-10 12-7 9-3 3-2-1 2-4 9-10 11-16 7-11z" fill="#3B3A3E"/>
<path transform="translate(592,1155)" d="m0 0h3l1 2 18 1 1 1 2 1 1 3h-15l-9-1-3 1h-30v-1l17-1v-2h8v1l6 1v-2h-5v-1h5z" fill="#636366"/>
<path transform="translate(565,1074)" d="m0 0h4v2l6 1 1 2 4-2 3-1-1 5h-2v3h-4l-2 2-4-4 1-3h-2l-1 3h-2l-2 6-3 1 1-7-4-1h-3l2-5 5-1 3 1z" fill="#3B3A3D"/>
<path transform="translate(641,656)" d="m0 0 1 3 9 2v2l13 1h8v3l-6 2h-12l-2-2 3-1h-7v-2h-2l-1 3v-2l-13-1-2-3 2-2h5l1-2z" fill="#47464A"/>
<path transform="translate(639,1142)" d="m0 0h1l1 9 2 4 3 1-2 3-1 10-2-4-2 2-5-1 1-3 6-2-1-3-7-1v-3l-4-1-1-4h-2l1-4 11 4z" fill="#403F43"/>
<path transform="translate(392,743)" d="m0 0 11 1-3 6-4 2-14 1-15-1 1-2h5v-2l7-2v2l7 1-1-3z" fill="#454448"/>
<path transform="translate(1625,549)" d="m0 0 2 1 2 8-2 5h5l-1 2-6 1-28-2-18-2-29-3-3-2 11 1 37 3 10 1 2-4v5h18z" fill="#A8A7A9"/>
<path transform="translate(1036,1230)" d="m0 0 14 1 2-1 1 4 5 1h8l2 3-1 1h-24l-11-1 1-4 6-1z" fill="#5E5E61"/>
<path transform="translate(589,420)" d="m0 0 1 2-13 22-11 30-4 9-1-3 11-33 10-22 3 1z" fill="#353438"/>
<path transform="translate(1117,901)" d="m0 0 3 1v2l4 1v2h7l-3 2-22 3-12 1-3-3 16-2 2-1-1-2-2 1 1-4h9z" fill="#353438"/>
<path transform="translate(1255,567)" d="m0 0 1 2 5-1v3l-6 2-3 8h-2v2l-3-1v-2l-5 2 1 2h-5l-1 2-5 2-4-2-1-2-2-1h3l3-3 3 1-1 2 5-1-1-2 10-4 3-6 5-1z" fill="#1B1A1C"/>
<path transform="translate(479,229)" d="m0 0 4 2 9 9 5-2 6-5h2v10l-1 3h-3l-2 4-3 1-1-6-4-2v-2l-4-2v-2h-2v-2l-4-2z" fill="#3E3D41"/>
<path transform="translate(1699,757)" d="m0 0 2 2 1 3v10l-3 2h-5l-2-5v-7h-4l-1 3-1-3-2-1 2-2 3 1z" fill="#0E0D0F"/>
<path transform="translate(1267,1141)" d="m0 0h2l-1 9-5-1h-10l-1 3-9-2 2-3-9-1 1-2h30z" fill="#454447"/>
<path transform="translate(1521,751)" d="m0 0 4 1 6 2 2 6-2 11-3-1h-3l-1-1-2 1-3-3 1-2h-2v2h-2l-1 4h-2v-3h2l2-4h2l2-4h2l1 4 1-4h3l-1-3-2-1v-2h-2v-2z" fill="#333236"/>
<path transform="translate(1194,1144)" d="m0 0h19v2h5l1 2-6 2-27 1-4-2 7-1 5-2z" fill="#0F0E0F"/>
<path transform="translate(451,1268)" d="m0 0 5 2 9 7-1 5-3 4h-3l-6-7-1-3z" fill="#030203"/>
<path transform="translate(1445,774)" d="m0 0 10 1-1 3-4 1v2l-5 2h-17l-5-1-1-4 1 2 13-3 4 1v-2h2v2l4-1z" fill="#353438"/>
<path transform="translate(828,621)" d="m0 0v3l-5 5-10 9-11 8-8 1h-3v-3l4-1-1-3 2-1 13-2 9-7 8-8z" fill="#343337"/>
<path transform="translate(828,516)" d="m0 0 7 2 8 10 5 12 2 13-1 2-5-12-2-12-3-1v-2h-3l-3-5h-4v-5z" fill="#313034"/>
<path transform="translate(923,1055)" d="m0 0h1v24l-1 5h-2v2h2v13l2 13v10l-2-4-2-6-1-12v-21l1-2v-13h1z" fill="#403F43"/>
<path transform="translate(1254,993)" d="m0 0 3 1-7 7h-4v2l-13 1-4-4 1-4 10-1h4l1 5 2-3 2 1 1-2z" fill="#414043"/>
<path transform="translate(595,910)" d="m0 0 1 2-6 21-5 28-3-4 1-13 7-22 3-10z" fill="#353438"/>
<path transform="translate(590,574)" d="m0 0 4 1 3 9h2l3 5 3 8 1 4v3l6 3-1 2-9-2-3-7-3-13-2-5-2-3v-3h-2z" fill="#3C3B3F"/>
<path transform="translate(791,515)" d="m0 0 7 1 2-1 7 2h7v3l-4-1-3 2 2 1-6-1-1 3-9-1-11-3h-4v-2l-4-1 4-1h4l6 2 5 2h4l-2-2z" fill="#232225"/>
<path transform="translate(852,568)" d="m0 0 2 4 2 2 1 4v13l-1 1-1 18-10 22h-1l1-7 5-12 3-11v-26l-2-6z" fill="#353438"/>
<path transform="translate(1364,565)" d="m0 0 2 1 1 8-1 4h2l1 3-7-1-12-2-15-3-27-3v-1h5l1-2v2l14 1 20 2 5 2 11 2-1-11z" fill="#78787A"/>
<path transform="translate(454,1120)" d="m0 0 3 1 2 8 3-1-1 18-3 15h-1v-19l-1-7-1-5-1-3z" fill="#353438"/>
<path transform="translate(914,882)" d="m0 0h6l6 5 3 6v5l-5-5-6-5h-5l1 7-2 2-1-5h-2l-1-5 4-4z" fill="#323135"/>
<path transform="translate(1804,477)" d="m0 0v3l-13 14-11 9-15 11-16 9-6 3-3-1 17-9 21-14 12-11z" fill="#FEFEFE"/>
<path transform="translate(1306,571)" d="m0 0 36 4 7 1 6 2 14 3-1 2-25-4-6-2-18-2-17-1-1-2z" fill="#232225"/>
<path transform="translate(686,524)" d="m0 0h3l2 4v3h5v4l9-4 4-2v-2l4-3h2l-2 4-4 2v4h-3l-1 3h-3l-6 2-1-3-1 5-4-2 2-4-3 1-1-6 1-2h-2z" fill="#3A393D"/>
<path transform="translate(568,739)" d="m0 0 2 2 4-2 5 3-1 4h-2v2l-8 2-7-4-6-2v-1h7l1-2h2 3z" fill="#39383C"/>
<path transform="translate(640,1169)" d="m0 0h2v15h2l-1 20-2 3h-2v-27z" fill="#3C3B3E"/>
<path transform="translate(1208,869)" d="m0 0 4 1-3 5-6 7-9 14h-5l2-7 3-3h-2v-2h3l2-5 1 3 1-1 4-1 1-5 2-2v-2h2z" fill="#302F32"/>
<path transform="translate(1347,1228)" d="m0 0h8v2l-2 1 1 2 9 1v1h-39l-1-3h2v-2h2v2h10l1-2 5-1v2h4z" fill="#39383B"/>
<path transform="translate(804,959)" d="m0 0 2 2-1 4-1 2h3l-5 5-1-2h-2l-2 4-9 10h-2l-1 2v-3l10-14 2-1 2-6 4-2z" fill="#58585B"/>
<path transform="translate(1205,864)" d="m0 0v3l-4 7h-3l-2 4-5 7-3 6-4 5-2-1 4-9 5-8 4-7h2l2-4 3-2h2z" fill="#2B2A2E"/>
<path transform="translate(914,895)" d="m0 0h3l2 9v16l-2 1-2 3-1-3z" fill="#3F3E41"/>
<path transform="translate(349,749)" d="m0 0 9 1 6 1-2 2-22 5h-5l2-5 9-3z" fill="#323135"/>
<path transform="translate(1758,397)" d="m0 0 1 2-1 6h-2l-3 9 1 2h-3l-2-3-1 2h-2l1-7 3-6 2-2h3v-2z" fill="#E6E6E6"/>
<path transform="translate(791,321)" d="m0 0h19v1h-10l-1 3-5 5-7 9-3 2-4-1 8-5 5-8h-5-4l-1-2 4-1-6-1v-1z" fill="#39383B"/>
<path transform="translate(642,657)" d="m0 0 7 1 5 1 4 1 1-1 1 2 11 1 3 1 12 1 3 2h-17l-1-1h-13l-7-2v-2l-9-1z" fill="#030203"/>
<path transform="translate(438,534)" d="m0 0 3 1 2 3v30l-4-1-1-2v-7l1-4v-10-3l1-5h-2z" fill="#363539"/>
<path transform="translate(1182,1225)" d="m0 0h47v2l-7 1h-12l-3-1-8 1h-16z" fill="#FEFEFE"/>
<path transform="translate(1396,1206)" d="m0 0h29v1l-17 2-1 1-17 2h-15l4-2 14-3z" fill="#302F32"/>
<path transform="translate(1537,556)" d="m0 0 13 2 29 3 12 1-4 2-9 1-25-4-15-1z" fill="#232225"/>
<path transform="translate(577,515)" d="m0 0h1l1 5h1l2 18 1 8v10l-2-1-2-13-2-5z" fill="#6D6C6F"/>
<path transform="translate(1806,740)" d="m0 0 5 1 7 8 4 4-1 4 2 9h-2l-2-5-1-1-2-4-10-15z" fill="#646366"/>
<path transform="translate(1241,817)" d="m0 0 2 1-10 20-10 16-3-1 2-4h2l2-6 10-19z" fill="#353438"/>
<path transform="translate(1771,716)" d="m0 0 6 1 9 4-3 3-27-2 2-1v-2h11l2 1z" fill="#6C6B6E"/>
<path transform="translate(1481,794)" d="m0 0 12 1 1 3-9 2-3 2-1-1-14-2 1-2z" fill="#F8F8F8"/>
<path transform="translate(1157,1124)" d="m0 0 25 4 38 1v1l-40 1-26-5z" fill="#FEFEFE"/>
<path transform="translate(770,498)" d="m0 0h5l1 10 3 3v2l-4-1-8-4-3-1v-3h2v-2z" fill="#919092"/>
<path transform="translate(877,358)" d="m0 0 10 3 3 3-2 3 6 1 3 3-3 1-9-3-2-2-8-3 1-2h3 2l-4-2z" fill="#767578"/>
<path transform="translate(1012,301)" d="m0 0 2 1-12 11-8 8-3 7-6 1-3 3-2-1 6-7 8-7 9-9z" fill="#3E3D41"/>
<path transform="translate(1816,801)" d="m0 0v3l-10 10-3 4h-2v2l-8 7-14 14-4 1 5-5 10-11 15-15 8-7zm-43 41 2 1z" fill="#FEFEFE"/>
<path transform="translate(1253,1218)" d="m0 0h33v1l-29 2-4 1-26 1 3-1 1-2 15-1z" fill="#858486"/>
<path transform="translate(1029,812)" d="m0 0h7l9 2-2 1-1 2-2-1-1 3-3 1-2-1-1 3-4-1-2-3 1-5z" fill="#171617"/>
<path transform="translate(555,522)" d="m0 0h1l1 8 2 4v10h-2l1 5 2 1 1 3 2-3v16h2l1 4-2 1v-2h-2l-2-8 1-2h-2l1-4-2-1-2-4-1-17z" fill="#3B3A3E"/>
<path transform="translate(1429,408)" d="m0 0 13 1 23 3v3 1h-9l-3-1v-2l-11-1-12-2z" fill="#3D3C40"/>
<path transform="translate(344,479)" d="m0 0 9 1 2 4-1 5h-7l-4-1-1-3z" fill="#030203"/>
<path transform="translate(1743,402)" d="m0 0h1l1 6-1 4-5 3h-9l2-5z" fill="#030203"/>
<path transform="translate(578,497)" d="m0 0 4 4v9l2 6-1 4-5 1-1-7v-9z" fill="#5D5C5F"/>
<path transform="translate(593,1297)" d="m0 0h5l1 2 2-1-1 4h2v5h-2v2l-5-1-2-1-1 2-2-4 5 1v-2l4 1-1-2h-8l-3 2-1-2 1-2h3v-3z" fill="#353438"/>
<path transform="translate(535,1216)" d="m0 0h2v3h2l1-3 1 4-2 7 1 1v6h-5l-2-6 1-7-1-3h2z" fill="#030203"/>
<path transform="translate(1134,1140)" d="m0 0 11 1 30 4 12 2v1h-9l-21-2-20-4z" fill="#FEFEFE"/>
<path transform="translate(1729,1136)" d="m0 0 1 3-4 6-5 4-8 2 4-4h-7l-2-3v-5l2 4h5l1 1 8-3z" fill="#39383C"/>
<path transform="translate(835,555)" d="m0 0 4 2-1 4h2v4l7-3h3l-1 2-9 9h-3l-2-14-1-3z" fill="#6F6E71"/>
<path transform="translate(855,347)" d="m0 0h4v2h10l3 1v3l-2 1 1 2-10-1-7-3 1-2-2-2z" fill="#636265"/>
<path transform="translate(502,1288)" d="m0 0h62l2 2-38 1h-26z" fill="#353438"/>
<path transform="translate(661,1280)" d="m0 0 9 1-1 3-13 2-6 4v-2l-6-1v-3z" fill="#2B2A2D"/>
<path transform="translate(642,656)" d="m0 0h12l11 2v2l22 3 2 2-15-1-15-3-9-1-8-3z" fill="#353438"/>
<path transform="translate(1085,592)" d="m0 0 2 3-8 7h-5l-1 3-4 2-2-1v-6l2-2h4v2l9-6z" fill="#252426"/>
<path transform="translate(563,961)" d="m0 0 1 3-5 12-1 10-3 5-2 7-2-2 1-7 5-16z" fill="#353438"/>
<path transform="translate(723,884)" d="m0 0 2 1-10 8-8 8-9 12-3-1 4-6 9-10 8-8z" fill="#4A494C"/>
<path transform="translate(1810,467)" d="m0 0h2l-2 7-5 4-7 6-14 14v-3l11-11 9-11z" fill="#3D3C40"/>
<path transform="translate(1152,579)" d="m0 0h2l1 5-6 2-10 5h-2v-3l-4-1 1-4h2v2l9-2z" fill="#4F4E52"/>
<path transform="translate(1161,586)" d="m0 0 5 2 2 4v3l-5 3h-4l1-5h-2l-3-6h5z" fill="#333236"/>
<path transform="translate(680,341)" d="m0 0 3 1-6 4-15 6-8 2-4-1 21-9z" fill="#57575A"/>
<path transform="translate(1068,1232)" d="m0 0 19 3 25 5 12 2v1l-13-1-28-5-9-1-6-2z" fill="#FEFEFE"/>
<path transform="translate(787,757)" d="m0 0m-3 1h3v2l-34 11h-6l1-2 24-7z" fill="#353438"/>
<path transform="translate(1349,744)" d="m0 0h6l-1 3 5 1-1 2 4-1-1 9-3-4h-2v-2l-7-1-3-1-1 2v-3l3-1 4 1v-3h-8v-1z" fill="#37363A"/>
<path transform="translate(1375,869)" d="m0 0h8l8 3 12 3 1 1 2-2v3l1-2h3l1-2-1 5-3 1-24-6-5-1v-2z" fill="#353438"/>
<path transform="translate(1397,1228)" d="m0 0 5 1v1l-5 1-2 3h-9l-8-1 1-3 3-1h10z" fill="#262529"/>
<path transform="translate(1265,1221)" d="m0 0h10v3h-2l-1 9-2-2 1-9h-3v13h3v4h-6l-4-2 5-1v-11l1-2-5 1-2-2z" fill="#3B3A3D"/>
<path transform="translate(666,668)" d="m0 0 26 2v1l-9 1h-16l-12-1v-2z" fill="#FEFEFE"/>
<path transform="translate(1077,493)" d="m0 0 6 1 1 4-5 5-5 4-3-1 1-5 3-2z" fill="#888889"/>
<path transform="translate(1246,780)" d="m0 0 1 2-2-1zm-4 2h3l-1 4-4 6-3 1-1 3-3-1 2-10 5-2v2h2z" fill="#626265"/>
<path transform="translate(1542,1024)" d="m0 0 2 1-2 2v3l-11 8-6 4-4-1 9-7z" fill="#242325"/>
<path transform="translate(675,1023)" d="m0 0h3l-2 15-7-1-2-1 2-4h2l-2-5 5 1-1-3z" fill="#48474B"/>
<path transform="translate(499,706)" d="m0 0 8 2 5 1 1-2 4 6 5 3v1l-8-1-7-2v-2l-8-5z" fill="#353438"/>
<path transform="translate(1361,425)" d="m0 0h7v3l-2 1h-31l1-3h24z" fill="#313034"/>
<path transform="translate(1058,1214)" d="m0 0 7 1 21 4v2l-8 1v-2h-8l-11-3z" fill="#878789"/>
<path transform="translate(636,1074)" d="m0 0 7 2 4 3v2l3 1-1 2-22-1 3-1v-5l2 2 12 1-4-3-5-1z" fill="#757576"/>
<path transform="translate(958,447)" d="m0 0h2l6 8 5 5 2-1 2 8 2 9v5l-2-1v-5l-9-16-8-11z" fill="#37363A"/>
<path transform="translate(1233,1127)" d="m0 0h34v2l-4 1h-25l-5-2z" fill="#2E2D31"/>
<path transform="translate(1180,794)" d="m0 0 6 1-1 2-11 5-6 3h-3v-2l-4-1 9-3z" fill="#7D7D7E"/>
<path transform="translate(780,512)" d="m0 0h2v2h6l1-2 10 2-1 3h-2l2 3-5 1-12-6z" fill="#FEFEFE"/>
<path transform="translate(766,1119)" d="m0 0 2 1-1 9-5 31h-1l1-22z" fill="#353438"/>
<path transform="translate(1587,563)" d="m0 0h10l28 2v1h-38l-5-1v-1z" fill="#070607"/>
<path transform="translate(678,363)" d="m0 0 4 1-3 1-1 2-9 2-7 2v3h-5-3l3-3 8-5 10-2z" fill="#353438"/>
<path transform="translate(849,337)" d="m0 0h1l1 7-27-2-13-1v-1h25l5 1 1-2h6z" fill="#353438"/>
<path transform="translate(1157,1224)" d="m0 0h22l1 4h-12l-12-1-2-2z" fill="#68676A"/>
<path transform="translate(1331,830)" d="m0 0 4 1-1 4h-3v2l-8 4-2-4 5-5z" fill="#535255"/>
<path transform="translate(1787,376)" d="m0 0 1 3-9 11-5 6-1-2 1-2-2-1 5-6 5-5z" fill="#636265"/>
<path transform="translate(1081,240)" d="m0 0 2 3-13 13-7 6-4 4-2-1 13-13 7-8z" fill="#3D3C3F"/>
<path transform="translate(1557,1200)" d="m0 0 2 4v8h2v-6l3-1 2 10-4-2-1 2-6-1v-10z" fill="#2D2C30"/>
<path transform="translate(949,415)" d="m0 0 5 1 2 1 1 5h2l2-6 2 1-1 5-2 3h-2l-2 4h-1v-6h-2v-2h-4z" fill="#2A292C"/>
<path transform="translate(1219,402)" d="m0 0h22v1l-10 1-5 2h-16l-1-2z" fill="#2B2A2D"/>
<path transform="translate(1747,393)" d="m0 0 2 1v1l2 1-4 5v3l2 1-2 5h-3l-1-7-5 4-2-1 9-10z" fill="#5A595C"/>
<path transform="translate(633,663)" d="m0 0 8 1 4 1h4 6l1 2-2 1 1 2-9-1-2-1-9-1z" fill="#E5E5E5"/>
<path transform="translate(609,1075)" d="m0 0v3h-5v4h-5-3l-3 1v-2h-2l-1 2v-3l3-1v-2z" fill="#676769"/>
<path transform="translate(525,713)" d="m0 0 7 1 1 3 4 2 3 4-1 4-5-5-9-3 2-3-2-2z" fill="#38373B"/>
<path transform="translate(1246,577)" d="m0 0m-2 0 2 2-4 3 1 2h-5l-1 2-5 2-4-2-1-2-2-1h3l3-3 3 1-1 2 5-1-1-2z" fill="#353438"/>
<path transform="translate(1173,997)" d="m0 0 11 1 2 5-6 1h-3-6l-1-3-2-2zm7 2v2l3-1z" fill="#323134"/>
<path transform="translate(680,955)" d="m0 0 2 1-1 6 1 4-3 10-4 4 1-11 2-7 1-5z" fill="#323135"/>
<path transform="translate(651,375)" d="m0 0 2 2-5 5h-2l-1 2h-2l-3-3 1 6-2 5-3-1 1-2h2l-1-7v-4h9z" fill="#3A393D"/>
<path transform="translate(1268,1216)" d="m0 0h27l9 1v2h-45l2-2z" fill="#302F33"/>
<path transform="translate(1152,1140)" d="m0 0 10 1 22 4v1h-9l-24-3z" fill="#353438"/>
<path transform="translate(1252,981)" d="m0 0h7l5 1v2l2 1-8 8-1-4-2-7z" fill="#424145"/>
<path transform="translate(794,897)" d="m0 0 9 2v2l3-1 2 2-3 1-2 4-7-1h-3v-2h-2v-2h9l-5-3z" fill="#434245"/>
<path transform="translate(1417,859)" d="m0 0 5 2 2 5-1 4h-3l-2-2v-4l-3 3-4-4 2-2h3z" fill="#3F3E42"/>
<path transform="translate(1063,806)" d="m0 0 12 2 6 3-8 2-5 1-3-2z" fill="#3F3E42"/>
<path transform="translate(1063,763)" d="m0 0h3l3 7-4 1h-8v-2l-3-1v-2h4z" fill="#373639"/>
<path transform="translate(596,446)" d="m0 0 2 1-3 12-4 1-1 2h-2l1-6 4-2 2-6zm-9 16 2 1-1 5-2-1z" fill="#605F62"/>
<path transform="translate(935,965)" d="m0 0h1l1 20v15l-4 1z" fill="#323134"/>
<path transform="translate(654,664)" d="m0 0h18v3l-6 2h-12l-2-2 3-1z" fill="#525154"/>
<path transform="translate(1758,403)" d="m0 0 1 2 5 1-2 4-5 5h-5l4-10h2z" fill="#515053"/>
<path transform="translate(477,1165)" d="m0 0h1l1 11 1 4-2 7-1 2h-2v-11l1-11z" fill="#7B7B7D"/>
<path transform="translate(1132,988)" d="m0 0 2 1-2 2 4 3-5 4-1 2-5 1-2-2 4-6z" fill="#363538"/>
<path transform="translate(915,952)" d="m0 0h1l1 15 4 1-1 9-3 1-1 8h-1z" fill="#706F72"/>
<path transform="translate(358,747)" d="m0 0h12 2 5l-4 1v2l-9 2-11-2 1-2z" fill="#B1B0B2"/>
<path transform="translate(582,1076)" d="m0 0 1 2-1 3h-2v3h-4l-2 2-4-4 2-5h3l1 2 4-2z" fill="#2B2A2D"/>
<path transform="translate(535,729)" d="m0 0 7 5 7 4 6 4-4 1-6-3-9-5-2-3z" fill="#3B3A3D"/>
<path transform="translate(672,1301)" d="m0 0 16 1 6 1h6l1 2h-22l-13-1 2-2z" fill="#343337"/>
<path transform="translate(584,1220)" d="m0 0 3 3 5 2 2 5-5 3h-3l-2-6z" fill="#424145"/>
<path transform="translate(582,886)" d="m0 0 2 4-4 17-3 6h-1l1-10 3-11h2v-2l-2-1z" fill="#353438"/>
<path transform="translate(1211,844)" d="m0 0h4l-2 6-4 4-6-1-1-4 4-2 4-1z" fill="#353438"/>
<path transform="translate(1531,734)" d="m0 0 2 1 1 2h3l-1 2h2l4 4v7l-3 1-1 2v-8l-10-8z" fill="#414044"/>
<path transform="translate(1e3 587)" d="m0 0 2 3-1 13-5 16-3 1 3-12 3-16z" fill="#353438"/>
<path transform="translate(799,515)" d="m0 0 7 1 1 1h7v3l-4-1-3 2 2 1-6-1-1 3-4-1z" fill="#39383C"/>
<path transform="translate(591,458)" d="m0 0 2 2-1 6-2 7-2 5-3-3-1-5 3-3 1-4 2-1z" fill="#313034"/>
<path transform="translate(1226,564)" d="m0 0h8v3l-8 1v1l-9 1-3-2v2l-3-1 2-3h6z" fill="#454448"/>
<path transform="translate(686,524)" d="m0 0h3l2 4v3h5l1 5h-2l-1 5-4-2 2-4-3 1-1-6 1-2h-2z" fill="#38373B"/>
<path transform="translate(801,107)" d="m0 0 8 2 2 5-2-1v-2h-4l1 4-5-3-12 1v-2l7-3z" fill="#444347"/>
<path transform="translate(772,1077)" d="m0 0h1l-1 16-2 5-2 16h-2l1-13z" fill="#969597"/>
<path transform="translate(1148,899)" d="m0 0 2 1-3 3-11 4h-5l3-3h-4v-3h6l4-1 2 1z" fill="#605F62"/>
<path transform="translate(796,639)" d="m0 0 6 1 3 3-3 3-8 1h-3v-3l4-1-1-3z" fill="#030203"/>
<path transform="translate(553,1145)" d="m0 0h3v8l-4-2-1-3-2 7-9 1 3-2 6-1-2-3h-3l-1 3v-2l-5 1v-2l10-3z" fill="#353438"/>
<path transform="translate(1313,569)" d="m0 0 1 2 14 1 20 2 4 2-7 1-10-2-27-3v-1h5z" fill="#FEFEFE"/>
<path transform="translate(690,1280)" d="m0 0 9 1 4 3 1-2v2h12v1h-19l-11-2-1-2z" fill="#343337"/>
<path transform="translate(1036,810)" d="m0 0h2v2h7v3l-11-2h-2v-2zm7 5h2v4l2 1v2l-9-1 2-5z" fill="#939294"/>
<path transform="translate(1152,807)" d="m0 0 3 1-8 5-7 3-7-1 3-3 13-4z" fill="#2C2B2F"/>
<path transform="translate(829,542)" d="m0 0 1 3v4l1-5 4 1v2h-2l1 11-2 1-3-3-2-12z" fill="#313034"/>
<path transform="translate(579,598)" d="m0 0h2v14l1 3 4 2 2 2 1 2-1 2h-2v-2h-2v-3h-2v-2h-2l-2-8v-9z" fill="#353438"/>
<path transform="translate(758,1196)" d="m0 0 2 2v23l-1 7h-1l-1-25z" fill="#29282B"/>
<path transform="translate(578,1159)" d="m0 0h8v1l5 1v2h-30v-1l17-1z" fill="#49484B"/>
<path transform="translate(661,1019)" d="m0 0 10 2 4 2-7 1-5-1v2h-5-3l2-1 1-4z" fill="#525155"/>
<path transform="translate(1490,742)" d="m0 0 7 1 3-1 3 2 1 5-4-1-3 3v-3h-3v-4h-2v2h-2z" fill="#4C4B4F"/>
<path transform="translate(530,294)" d="m0 0 3 1v2l2 1v3l-4 1v2h-2v-2l-4-1v-3l4-1z" fill="#030203"/>
<path transform="translate(787,239)" d="m0 0h1v18l-2 5h-2v-9l1-7z" fill="#78777A"/>
<path transform="translate(927,1138)" d="m0 0 2 1 3 15 3 8 1 8-1-2h-2l-5-21z" fill="#353438"/>
<path transform="translate(611,1078)" d="m0 0 6 1 13 1v2l-6 2-13-2z" fill="#3D3C3F"/>
<path transform="translate(448,641)" d="m0 0 1 4h2l1 10 5 10-1 4v-3h-2l-4-7-2-9z" fill="#353438"/>
<path transform="translate(1077,605)" d="m0 0h3l1 7h5l-3 6-1-3-5 1-1-4-2-2z" fill="#4F4E51"/>
<path transform="translate(923,1055)" d="m0 0h1v24l-1 5h-2l-1 2v-7l1-2v-13h1z" fill="#353438"/>
<path transform="translate(1738,837)" d="m0 0 7 1 7 4 1 2h-3l1 2h-9l-3-3 7-1v-2l-8-2z" fill="#6F6E71"/>
<path transform="translate(601,854)" d="m0 0 1 3-2 6-2 5-10 2 5-6h2l-1-3h2v2h2l-1-4 1-2h2z" fill="#353438"/>
<path transform="translate(1262,569)" d="m0 0 2 2h-2v2l-5 5-2 3h-2l-1 2v-3l2-7 2-2z" fill="#353438"/>
<path transform="translate(776,341)" d="m0 0 4 1 5 1-4 2-17 2 1-3z" fill="#2C2B2E"/>
<path transform="translate(1069,255)" d="m0 0v3l-10 11-8 7h-2l2-4 17-16z" fill="#FEFEFE"/>
<path transform="translate(1015,1232)" d="m0 0h24l3 2-9 1h-9l-9-2z" fill="#252428"/>
<path transform="translate(1234,995)" d="m0 0h10l1 4-1 2h-2l-1-1-2 2-1-4-8 1v-3z" fill="#79787B"/>
<path transform="translate(1192,878)" d="m0 0 2 1-6 12-4 5-2-1 4-9z" fill="#333236"/>
<path transform="translate(1248,782)" d="m0 0 2 1-1 3 2 1-6 2v3l-3 1-1-3 4-7zm-8 9m-1 1m-2 1 2 1 1 3-3-1z" fill="#151417"/>
<path transform="translate(1387,733)" d="m0 0 6 2v2l7 1v1l-13 1-4-2v-2l3-1z" fill="#49484C"/>
<path transform="translate(1269,560)" d="m0 0h7l2 5-1 1-8 1v-2h-2z" fill="#757477"/>
<path transform="translate(1220,1144)" d="m0 0h12v4l-5 3-4 1 2-5-5-1z" fill="#6E6E71"/>
<path transform="translate(1141,762)" d="m0 0 1 2h2l-1 5-2 1v-3l-3 4-3 1v-7z" fill="#727274"/>
<path transform="translate(1288,1214)" d="m0 0h15v1h-9v2h-21l3-2z" fill="#181719"/>
<path transform="translate(1337,763)" d="m0 0 6 3v2l7 2 1 3 5 1-2 2-10-4v-2l-3-1-4-4z" fill="#302F32"/>
<path transform="translate(1155,922)" d="m0 0 2 1-1 3-2 4 1 2-2 3-5 2v-4z" fill="#302F32"/>
<path transform="translate(1102,906)" d="m0 0 16 1v1l-17 2h-10l1-2z" fill="#FEFEFE"/>
<path transform="translate(1707,850)" d="m0 0h2l4 8 1 5h-4-2l-2-12z" fill="#7D7C7F"/>
<path transform="translate(1380,793)" d="m0 0 7 1 2 1v-2l3 1 1 4-6 2-2-4-4-1z" fill="#222123"/>
<path transform="translate(1723,728)" d="m0 0 2 1-4 5-8 5-3-2 7-6z" fill="#353437"/>
<path transform="translate(1773,719)" d="m0 0h9l4 3-3 2-13-2z" fill="#444345"/>
<path transform="translate(1153,581)" d="m0 0h6l1 7h-5l-3 1v-2l-3 1v-3l5-1z" fill="#FEFEFE"/>
<path transform="translate(776,506)" d="m0 0h2v3h3v5l1 2-6-1-7-4-3-3 5 1 8 4-3-4-4-2z" fill="#333235"/>
<path transform="translate(972,436)" d="m0 0 4 1-1 7h2v8h-2l-1-7-3 1v-3z" fill="#323134"/>
<path transform="translate(640,358)" d="m0 0 3 1-4 5-5 5-6 4-2-1z" fill="#5E5D60"/>
<path transform="translate(1194,1144)" d="m0 0h19v2l-4 1-6-1-1 2h-4l-4-2z" fill="#6E6D70"/>
<path transform="translate(1312,1118)" d="m0 0h2l1 3-5 1-1-1-14 2h-9v-1z" fill="#373639"/>
<path transform="translate(1454,737)" d="m0 0h2v2h2v4l-5 1-1-2-3 1 1 5-3 1-1-3 3-5z" fill="#A3A3A5"/>
<path transform="translate(1485,554)" d="m0 0h11l3 3v2l6 2-1 2-1-1h-10l-3 1v-2l6-1v-2l-2-1-5-2-1 4-1-2 1-2z" fill="#333236"/>
<path transform="translate(1015,1208)" d="m0 0 14 3 2 3-13-1-4-2z" fill="#2C2B2E"/>
<path transform="translate(1008,792)" d="m0 0 5 2 4 2-1 4-3 2-3-3v-2h-2z" fill="#68676A"/>
<path transform="translate(319,739)" d="m0 0m-5 1h5l-1 3-15 1-5 1-2-2z" fill="#353438"/>
<path transform="translate(1625,549)" d="m0 0 2 1 2 8-2 5h5l-1 2-9-1 3-1z" fill="#6B6A6D"/>
<path transform="translate(976,476)" d="m0 0 3 4 1 5h2v9h-2l-4-11z" fill="#88888A"/>
<path transform="translate(1454,411)" d="m0 0 11 1v3 1h-9l-3-1z" fill="#454447"/>
<path transform="translate(715,354)" d="m0 0h2l1 3-17 3-2-2 9-3z" fill="#7C7B7E"/>
<path transform="translate(594,1161)" d="m0 0 9 1 1 3-10 1-5-1z" fill="#151416"/>
<path transform="translate(795,969)" d="m0 0 2 1-2 4-3 5-4 5h-2l-1 2v-3z" fill="#373639"/>
<path transform="translate(589,420)" d="m0 0 1 2-8 13-3-1 3-9 3 1z" fill="#302F33"/>
<path transform="translate(625,1212)" d="m0 0h2v2l-12 7h-6l3-3z" fill="#39383C"/>
<path transform="translate(624,1159)" d="m0 0h8v3l-9 3-4-2v-3z" fill="#9D9D9F"/>
<path transform="translate(1168,1147)" d="m0 0h21v2l-7 1h-12l-3-2z" fill="#302F33"/>
<path transform="translate(674,350)" d="m0 0 1 2-1 2 4-1v2l-5 5h-2l1-6h-8l-1-2 5-1h5z" fill="#3D3C40"/>
<path transform="translate(1470,882)" d="m0 0 3 1-5 3 1 2-10 2v-1l-5-1 4-2 5-1z" fill="#4B4A4E"/>
<path transform="translate(1339,1229)" d="m0 0 3 1v2l-6 2-12 1-1-3h2v-2h2v2h10l1-2z" fill="#58575A"/>
<path transform="translate(1039,1228)" d="m0 0 14 1v2h2v2l-4 1v-3l-2 1-11-1-1-2z" fill="#323135"/>
<path transform="translate(1508,837)" d="m0 0 3 1-10 10-4 1v-3l10-8z" fill="#373639"/>
<path transform="translate(1137,769)" d="m0 0h3l-1 6-3 12-2-4 1-11h2z" fill="#2E2D30"/>
<path transform="translate(1254,993)" d="m0 0 3 1-7 7h-4v2l-5-1 4-2 2-3 2 1 1-2z" fill="#333236"/>
<path transform="translate(795,324)" d="m0 0 3 1-10 13-4 3-4-1 8-5z" fill="#636266"/>
<path transform="translate(1197,879)" d="m0 0 1 3-2 7-2-1v-2h-2v-2h3zm-4 9m-2 1 3 1-2 5-3 1z" fill="#2B2A2D"/>
<path transform="translate(1224,764)" d="m0 0 2 1-13 7-1 3-5-1 5-5 8-4z" fill="#2A292C"/>
<path transform="translate(1268,1222)" d="m0 0h3v10h2v2l-5 1z" fill="#030203"/>
<path transform="translate(695,912)" d="m0 0 2 2-9 13-2-1 6-11z" fill="#353438"/>
<path transform="translate(1505,867)" d="m0 0 2 1-4 3 1 2-13 5-3-1 14-8z" fill="#2C2B2E"/>
<path transform="translate(1819,803)" d="m0 0h2l-2 7 2-2 1 4-4 6-1-4 1-2h-2l1-7z" fill="#565558"/>
<path transform="translate(562,550)" d="m0 0 1 4v12h2l1 4-2 1v-2h-2l-2-8 1-2h-2v-5l2-1z" fill="#525154"/>
<path transform="translate(1512,439)" d="m0 0 9 1 7 2v3l-16-3z" fill="#39383C"/>
<path transform="translate(1486,415)" d="m0 0 14 1 4 1v2l-13-1-9-1z" fill="#353438"/>
<path transform="translate(1744,396)" d="m0 0m-1 1m-1 1m-1 1m-1 1m-1 1m-2 1h2l-2 6-5 3-2 4-3-2 5-6z" fill="#353438"/>
<path transform="translate(680,341)" d="m0 0 3 1-6 4-9 3 1-4z" fill="#323135"/>
<path transform="translate(1426,1225)" d="m0 0h14v2l-2 1h-16v-2z" fill="#5D5C5F"/>
<path transform="translate(635,1076)" d="m0 0 7 1 4 3-1 2-1-1-12-1z" fill="#0B0A0C"/>
<path transform="translate(558 1e3)" d="m0 0 8 2-1 2-5 2-5-1-1-3z" fill="#807F82"/>
<path transform="translate(1585,969)" d="m0 0 2 1-6 11-3 2-1-3 7-10z" fill="#2C2B2E"/>
<path transform="translate(1187,902)" d="m0 0 2 2-6 10-3-3 2-6z" fill="#4C4C4F"/>
<path transform="translate(790,896)" d="m0 0h2v2l4 1 5 3v1h-8l-3-1-1-4z" fill="#151416"/>
<path transform="translate(1435,747)" d="m0 0h2l-1 3-3-1-1 8-3-1-1-5 3-3z" fill="#3C3B3F"/>
<path transform="translate(511,251)" d="m0 0h2l2 4-1 5h-4l-2-8z" fill="#030203"/>
<path transform="translate(593,1297)" d="m0 0h5l-2 4-7 3h-3l1-3h3v-3z" fill="#2E2D31"/>
<path transform="translate(963,1195)" d="m0 0 6 4-1 6-5-3-1-6z" fill="#E9E9E9"/>
<path transform="translate(1120,1129)" d="m0 0h6l2 1v2h3v3l5 1-4 1-11-6z" fill="#FEFEFE"/>
<path transform="translate(640,1109)" d="m0 0 3 1v8h-2v13h-1l-1-16z" fill="#3B3A3D"/>
<path transform="translate(1171,798)" d="m0 0 3 1v3l-6 3h-3v-2l-4-1 9-3z" fill="#727274"/>
<path transform="translate(808,768)" d="m0 0 3 1-5 1v2l-10 5 1-5h3l1-3z" fill="#030203"/>
<path transform="translate(471,625)" d="m0 0 5 1v7l-2 4-2-1z" fill="#323135"/>
<path transform="translate(1121,589)" d="m0 0h5v2l4-1v2l-4 2-8-1-4-1z" fill="#757477"/>
<path transform="translate(1152,579)" d="m0 0h2l1 5-6 2h-3l-1-3z" fill="#353437"/>
<path transform="translate(1179,1224)" d="m0 0h30v1h-27l1 3h-3z" fill="#353438"/>
<path transform="translate(1483,1062)" d="m0 0h3l-1 8-4 2-1-5z" fill="#4E4D50"/>
<path transform="translate(1334,831)" d="m0 0 4 2 3 3-1 3-4-1v-2h-5z" fill="#2B2A2E"/>
<path transform="translate(1246,562)" d="m0 0h7v2l-8 1-3 2h-7l3-4z" fill="#313033"/>
<path transform="translate(614,1279)" d="m0 0 7 1 2 2-3 3h-3v-2h-4z" fill="#2E2D30"/>
<path transform="translate(665,1145)" d="m0 0h1v11l-1 10h-1l-1-17z" fill="#353438"/>
<path transform="translate(378,746)" d="m0 0 2 1-2 5h-11l1-2h5v-2z" fill="#333236"/>
<path transform="translate(1408,1225)" d="m0 0 14 1v2l-15 1z" fill="#2E2D30"/>
<path transform="translate(663,1186)" d="m0 0 1 2-1 12-5 1 3-10z" fill="#302F33"/>
<path transform="translate(1107,902)" d="m0 0h11l1 3-10 1h-3z" fill="#F8F8F8"/>
<path transform="translate(723,884)" d="m0 0 2 1-10 8-6 5 2-4 5-6z" fill="#323135"/>
<path transform="translate(1441,772)" d="m0 0 4 2v2l2 1-5 1v-2h-2v2l-6-1v-2l5-1z" fill="#030203"/>
<path transform="translate(1781,497)" d="m0 0h2l-1 3-13 9-2-1 10-8z" fill="#222124"/>
<path transform="translate(1603,456)" d="m0 0h2l1 2 9 1v1l-11 1-5-1-1-3 5 1z" fill="#2F2E32"/>
<path transform="translate(503,233)" d="m0 0h2v10l-1 3-3-1v-2h2l-2-5 1-4z" fill="#FEFEFE"/>
<path transform="translate(1293,1232)" d="m0 0h8l-1 3h-18v-1l10-1z" fill="#1E1D1F"/>
<path transform="translate(1478,1224)" d="m0 0m-7 1h7l1 2 10 1v1h-18z" fill="#515054"/>
<path transform="translate(1303,1129)" d="m0 0h1v9h5v2h-3v4h-3l-1-10z" fill="#3A393D"/>
<path transform="translate(820,630)" d="m0 0m-1 1m-1 1m-1 1v3l-2-1zm-3 3m-1 1m-1 1m-1 1 3 2-3 4h-2l-1 2-1-5z" fill="#BEBEBF"/>
<path transform="translate(1171,571)" d="m0 0 11 2-1 3-3-1-5 2z" fill="#2D2C30"/>
<path transform="translate(1485,547)" d="m0 0 2 1-1 5-1 4-6 1-1-3h4l-1-3 3-2z" fill="#353438"/>
<path transform="translate(1361,425)" d="m0 0h7v3l-2 1h-10l1-2z" fill="#464548"/>
<path transform="translate(1443,1225)" d="m0 0h13l3 1v2h-10l-2-1h-4z" fill="#323134"/>
<path transform="translate(1169,1224)" d="m0 0m-12 0h11v3h-12l-2-2z" fill="#353438"/>
<path transform="translate(1289,1216)" d="m0 0 15 1v2h-18v-2z" fill="#353438"/>
<path transform="translate(1085,592)" d="m0 0 2 3-8 7-3-1 3-1v-2l-2-1 5-3z" fill="#8C8B8D"/>
<path transform="translate(949,415)" d="m0 0 5 1 1 1v6h-2v-2h-4z" fill="#1C1B1D"/>
<path transform="translate(1281,1235)" d="m0 0h13l-2 3h-12z" fill="#363539"/>
<path transform="translate(1562,1205)" d="m0 0h2l2 10-4-2-1 2h-2v-3h2v-6z" fill="#3B3A3E"/>
<path transform="translate(785,780)" d="m0 0m-3 1h3l1 3-3 2h-3v2l-3 1v-3l2-3z" fill="#414044"/>
<path transform="translate(1223,762)" d="m0 0h3v2l-12 5h-2l1-3z" fill="#FEFEFE"/>
<path transform="translate(1531,734)" d="m0 0 2 1 1 2h3l-1 2h2v2l-4 1-6-5z" fill="#39383C"/>
<path transform="translate(1728,704)" d="m0 0 3 1-14 8-3-1 5-4z" fill="#353438"/>
<path transform="translate(642,657)" d="m0 0 7 1 5 2v2l-12-2zm12 2 4 1z" fill="#060506"/>
<path transform="translate(1406,408)" d="m0 0h14l1 3-15-1z" fill="#FEFEFE"/>
<path transform="translate(607,1140)" d="m0 0 8 1 6 2-1 2-13-2z" fill="#2E2D31"/>
<path transform="translate(589,785)" d="m0 0 16 3 4 2v1l-9-1-11-3z" fill="#353438"/>
<path transform="translate(1063,763)" d="m0 0h3l3 7-10 1v-1h5v-3l-3-2z" fill="#7E7E80"/>
<path transform="translate(1527,555)" d="m0 0h7l1 3-5 1h-7l4-2z" fill="#545356"/>
<path transform="translate(760,503)" d="m0 0 4 1v3l3 1-4 1-5-1-2-2 3-2z" fill="#545356"/>
<path transform="translate(1504,1218)" d="m0 0h10l-1 2-11 1-4 1v-3z" fill="#4E4E51"/>
<path transform="translate(1534,1197)" d="m0 0 5 1-1 2-9 1-5-1v-1z" fill="#414144"/>
<path transform="translate(1533,1032)" d="m0 0 2 1-5 4-5 5-4-1 9-7z" fill="#5B5B5D"/>
<path transform="translate(1117,901)" d="m0 0 3 1v2h2l-1 3h-12l2-2h8z" fill="#555457"/>
<path transform="translate(1481,879)" d="m0 0m-3 1h3v2l-12 5-4-1z" fill="#FEFEFE"/>
<path transform="translate(1205,864)" d="m0 0v3l-5 5-3-1 2-4 3-2h2z" fill="#48474B"/>
<path transform="translate(1418,863)" d="m0 0h5l1 5-1 2h-3l-2-2z" fill="#353437"/>
<path transform="translate(1306,571)" d="m0 0 11 1-2 2h-13l-1-2z" fill="#313034"/>
<path transform="translate(1203,566)" d="m0 0h7v4l-4-1h-3l-2-1v2h-5l4-1v-2z" fill="#353438"/>
<path transform="translate(768,506)" d="m0 0 9 3 2 4-4-1-8-4z" fill="#FEFEFE"/>
<path transform="translate(1541,446)" d="m0 0 8 1 1 3-9-1-5-1v-1z" fill="#333235"/>
<path transform="translate(1549,427)" d="m0 0 10 1 7 2v1l-13-1-5-1z" fill="#414144"/>
<path transform="translate(849,337)" d="m0 0h1l1 7-8-1-2-4h7z" fill="#575659"/>
<path transform="translate(1447,1220)" d="m0 0h7v2l-12 1-4 1v-3z" fill="#717073"/>
<path transform="translate(582,1076)" d="m0 0 1 2-1 3-9 2v-3l5-3z" fill="#E3E3E3"/>
<path transform="translate(1041,909)" d="m0 0h17l1 3h-10l-8-2z" fill="#353438"/>
<path transform="translate(1589,891)" d="m0 0 4 3-6 13-2-1 3-9z" fill="#333236"/>
<path transform="translate(1414,891)" d="m0 0 5 3 1 4-7-1v-3z" fill="#353438"/>
<path transform="translate(903,723)" d="m0 0 1 2-1 3-4 1-5 1 2-4z" fill="#353438"/>
<path transform="translate(648,644)" d="m0 0 9 1v2l-5 1-8-2z" fill="#49484B"/>
<path transform="translate(1537,556)" d="m0 0 13 2-3 2h-9z" fill="#717073"/>
<path transform="translate(777,516)" d="m0 0 4 1 3-1 4 3-1 1h-9v-2l-4-1z" fill="#313034"/>
<path transform="translate(724,514)" d="m0 0 5 1-3 2-9 5 2-5z" fill="#302F32"/>
<path transform="translate(747,344)" d="m0 0 5 2 1 3-8 2-1-2h2z" fill="#3F3E41"/>
<path transform="translate(1122,905)" d="m0 0h2v2h7l-3 2-7 1-3-1v-2z" fill="#2A292D"/>
<path transform="translate(582,886)" d="m0 0 2 4-2 8h-3l1-6h2v-2l-2-1z" fill="#3B3A3E"/>
<path transform="translate(354,750)" d="m0 0 10 1-2 2-10 1v-3z" fill="#28272B"/>
<path transform="translate(1823,730)" d="m0 0 4 2 5 7v2l-3-1-6-9z" fill="#57565A"/>
<path transform="translate(970,451)" d="m0 0 3 1-1 12-2-4-1-5z" fill="#1B1A1C"/>
<path transform="translate(1026,1215)" d="m0 0 12 3v2l-10-1-3-3z" fill="#353438"/>
<path transform="translate(468,1053)" d="m0 0h3l-2 4-4 4-2-1 2-2v-3z" fill="#3C3B3F"/>
<path transform="translate(1182,882)" d="m0 0 2 1-2 4h-2l-1 6-1-4-4-1 3-2h4l-1-3z" fill="#353438"/>
<path transform="translate(1208,869)" d="m0 0 4 1-3 5-4 3-1-2h2v-5h2z" fill="#414044"/>
<path transform="translate(1206,855)" d="m0 0 1 4-5 3-3 2 2-7 4-1z" fill="#313034"/>
<path transform="translate(1525,822)" d="m0 0v3l-9 8-2-2 8-7z" fill="#2D2C30"/>
<path transform="translate(1213,566)" d="m0 0h8l1 3-5 1-3-2v2l-3-1z" fill="#353438"/>
<path transform="translate(277,459)" d="m0 0 11 2-2 2h-8l-4-2z" fill="#353438"/>
<path transform="translate(728,351)" d="m0 0 11 1v2l-12 1z" fill="#414044"/>
<path transform="translate(531,318)" d="m0 0 2 2 1 5h3l-1 4h-3v-4h-2z" fill="#434246"/>
<path transform="translate(1069,1234)" d="m0 0 5 1 1 2h-3v2l-3 1-2-2v-3z" fill="#28272A"/>
<path transform="translate(936,1170)" d="m0 0 2 4 4 10-3-1-1-4h-2l-1-8z" fill="#353438"/>
<path transform="translate(947,1150)" d="m0 0 2 3 3 7v3l-3-2-2-5z" fill="#353438"/>
<path transform="translate(1190,1147)" d="m0 0h5l-3 4-10-1v-1l7-1z" fill="#1B1A1C"/>
<path transform="translate(1130,991)" d="m0 0 6 2-2 2-8 3 1-4 3-1z" fill="#706F72"/>
<path transform="translate(1738,837)" d="m0 0 7 1 7 4 1 2h-5v-3l-10-3z" fill="#F6F6F6"/>
<path transform="translate(1784,702)" d="m0 0 6 1 7 4-2 2-11-6z" fill="#353438"/>
<path transform="translate(1171,574)" d="m0 0 2 2-1 2-3 1-1 2-4-2v-2l7-1z" fill="#5A595C"/>
<path transform="translate(1625,566)" d="m0 0h21v1h-8v2h-3v-2h-10z" fill="#C9C9CA"/>
<path transform="translate(844,535)" d="m0 0 2 3 2 12-2-1-2-6z" fill="#FEFEFE"/>
<path transform="translate(1101,446)" d="m0 0 3 1v2l-8 3-2 1-2-2z" fill="#525155"/>
<path transform="translate(855,347)" d="m0 0 4 1-1 1 5 2-4 2-5-1 1-2-2-2z" fill="#434246"/>
<path transform="translate(776,341)" d="m0 0 4 1 5 1-4 2-9-1 1-2z" fill="#4B4A4E"/>
<path transform="translate(654,1305)" d="m0 0h2v2l2 1-13 1v-2z" fill="#3C3B3F"/>
<path transform="translate(668,1281)" d="m0 0h2l-1 3-5 1h-8l1-2 9-1z" fill="#7A797C"/>
<path transform="translate(1382,1229)" d="m0 0h6v2l-2 2h-8l1-3z" fill="#3C3B3F"/>
<path transform="translate(733,1210)" d="m0 0h1l1 9-1 5-2-3v-5l-2-3h2z" fill="#444347"/>
<path transform="translate(1577,1207)" d="m0 0 4 2-4 2-1 3-5 1 1-3 3-1z" fill="#353438"/>
<path transform="translate(611,1158)" d="m0 0h3l1 1 2 1 1 3-9-1z" fill="#444347"/>
<path transform="translate(1730,1114)" d="m0 0h2l-1 13h-2v-12z" fill="#353438"/>
<path transform="translate(1204,875)" d="m0 0m-1 1 2 1-2 5-3 4h-2l1-5 4-1z" fill="#333235"/>
<path transform="translate(1514,772)" d="m0 0h2l1 2h3l-4 3h-5v-3z" fill="#333235"/>
<path transform="translate(573,752)" d="m0 0 7 1 5 2 1 2-9-2z" fill="#353438"/>
<path transform="translate(509,695)" d="m0 0h4l1 5 4 5-6-1-1-4z" fill="#353438"/>
<path transform="translate(1081,240)" d="m0 0 2 3-4 4-3-1z" fill="#5B5A5E"/>
</svg>
